<svg id="Capa_1" data-name="Capa 1" xmlns="http://www.w3.org/2000/svg" viewBox="0 0 750 1334"><defs><style>.cls-1{fill:#5d93fb;}</style></defs><title>ICONOS TWINEXCHANGE PNG </title><path class="cls-1" d="M438.16,714.37a15.79,15.79,0,1,0-15.79-15.79A15.8,15.8,0,0,0,438.16,714.37Z"/><path class="cls-1" d="M90.79,714.37A15.79,15.79,0,1,0,75,698.58,15.8,15.8,0,0,0,90.79,714.37Z"/><path class="cls-1" d="M75,951.21A15.79,15.79,0,0,0,90.79,967H248.68a15.78,15.78,0,0,0,15.79-15.79V793.32a15.78,15.78,0,0,0-15.79-15.79H90.79A15.78,15.78,0,0,0,75,793.32Zm31.58-142.1H232.89V935.42H106.58Z"/><path class="cls-1" d="M248.68,367H90.79A15.79,15.79,0,0,0,75,382.79V540.68a15.78,15.78,0,0,0,15.79,15.79H248.68a15.78,15.78,0,0,0,15.79-15.79V382.79A15.78,15.78,0,0,0,248.68,367ZM232.89,524.89H106.58V398.58H232.89Z"/><path class="cls-1" d="M675,382.79A15.79,15.79,0,0,0,659.21,367H501.32a15.78,15.78,0,0,0-15.79,15.79V540.68a15.78,15.78,0,0,0,15.79,15.79H659.21A15.78,15.78,0,0,0,675,540.68Zm-31.58,142.1H517.11V398.58H643.42Z"/><path class="cls-1" d="M675,951.21V793.32a15.78,15.78,0,0,0-15.79-15.79H501.32a15.78,15.78,0,0,0-15.79,15.79V951.21A15.78,15.78,0,0,0,501.32,967H659.21A15.79,15.79,0,0,0,675,951.21Zm-31.58-15.79H517.11V809.11H643.42Z"/><path class="cls-1" d="M185.53,840.68H154a15.79,15.79,0,0,0-15.79,15.79v31.58A15.79,15.79,0,0,0,154,903.84h31.58a15.79,15.79,0,0,0,15.79-15.79V856.47A15.79,15.79,0,0,0,185.53,840.68Z"/><path class="cls-1" d="M154,493.32h31.58a15.79,15.79,0,0,0,15.79-15.79V446a15.79,15.79,0,0,0-15.79-15.79H154A15.79,15.79,0,0,0,138.16,446v31.58A15.79,15.79,0,0,0,154,493.32Z"/><path class="cls-1" d="M564.47,493.32h31.58a15.79,15.79,0,0,0,15.79-15.79V446a15.79,15.79,0,0,0-15.79-15.79H564.47A15.79,15.79,0,0,0,548.68,446v31.58A15.79,15.79,0,0,0,564.47,493.32Z"/><path class="cls-1" d="M564.47,903.84h31.58a15.79,15.79,0,0,0,15.79-15.79V856.47a15.79,15.79,0,0,0-15.79-15.79H564.47a15.79,15.79,0,0,0-15.79,15.79v31.58A15.79,15.79,0,0,0,564.47,903.84Z"/><path class="cls-1" d="M138.16,698.58A15.79,15.79,0,0,0,154,714.37H359.21v79a15.79,15.79,0,0,0,31.58,0V698.58A15.79,15.79,0,0,0,375,682.79H154A15.79,15.79,0,0,0,138.16,698.58Z"/><path class="cls-1" d="M248.68,651.21a15.79,15.79,0,0,0,0-31.58H90.79a15.79,15.79,0,1,0,0,31.58Z"/><path class="cls-1" d="M311.84,651.21H375a15.79,15.79,0,0,0,0-31.58H311.84a15.79,15.79,0,1,0,0,31.58Z"/><path class="cls-1" d="M311.84,367a15.79,15.79,0,0,0-15.79,15.79V540.68a15.78,15.78,0,0,0,15.79,15.79H422.37v78.95a15.79,15.79,0,0,0,15.79,15.79h63.16a15.79,15.79,0,0,0,0-31.58H454v-79a15.79,15.79,0,0,0-15.79-15.79H327.63V382.79A15.79,15.79,0,0,0,311.84,367Z"/><path class="cls-1" d="M659.21,619.63H564.47a15.79,15.79,0,0,0,0,31.58h94.74a15.79,15.79,0,0,0,0-31.58Z"/><path class="cls-1" d="M659.21,682.79H501.32a15.79,15.79,0,1,0,0,31.58H659.21a15.79,15.79,0,0,0,0-31.58Z"/><path class="cls-1" d="M375,840.68H311.84a15.79,15.79,0,0,0-15.79,15.79v94.74a15.79,15.79,0,0,0,31.58,0v-79H375a15.79,15.79,0,0,0,0-31.58Z"/><path class="cls-1" d="M422.37,935.42H375A15.79,15.79,0,0,0,375,967h63.16A15.79,15.79,0,0,0,454,951.21V761.74a15.79,15.79,0,1,0-31.58,0Z"/><path class="cls-1" d="M438.16,493.32A15.79,15.79,0,0,0,454,477.53V382.79a15.79,15.79,0,1,0-31.58,0v78.95H375a15.79,15.79,0,0,0,0,31.58Z"/></svg>