<svg id="Capa_1" data-name="Capa 1" xmlns="http://www.w3.org/2000/svg" viewBox="0 0 750 1334"><defs><style>.cls-1{fill:#5d93fb;}.cls-2{fill:#fff;}.cls-3{font-size:353.02px;fill:#99a0af;font-family:Heebo-Regular, Heebo;letter-spacing:-0.02em;}</style></defs><title>ICONOS TWINEXCHANGE PNG </title><path class="cls-1" d="M536.5,708V680.5a63.46,63.46,0,0,0-55-62.74V584.19c0-34.67-28.62-63.29-63.29-63.29H124.85a67.18,67.18,0,0,0-67.14,66V897.88c0,34.67,28.62,63.29,63.29,63.29H473.21c34.68,0,63.29-28.62,63.29-63.29V708ZM96.23,588a28.78,28.78,0,0,1,28.62-28.62H417.63a24.67,24.67,0,0,1,24.77,24.77v33H124.85C109.44,617.21,96.23,604,96.23,588Z"/><circle class="cls-2" cx="443.02" cy="780.14" r="45.59"/><text class="cls-3" transform="translate(497.29 674.83)">+</text></svg>