<svg id="Capa_1" data-name="Capa 1" xmlns="http://www.w3.org/2000/svg" viewBox="0 0 750 1334"><defs><style>.cls-1{fill:#5d93fb;}.cls-2{fill:#fff;}</style></defs><title>ICONOS TWINEXCHANGE PNG </title><rect class="cls-1" x="27.96" y="898.73" width="603.44" height="50.47"/><rect class="cls-1" x="63.45" y="565.81" width="70.99" height="312.13"/><rect class="cls-1" x="294.18" y="565.81" width="70.99" height="312.13"/><rect class="cls-1" x="524.91" y="565.81" width="70.99" height="312.13"/><polygon class="cls-1" points="329.67 357.73 27.95 524.19 27.95 545 631.39 545 631.39 524.19 329.67 357.73"/><circle class="cls-2" cx="550.08" cy="804.31" r="171.97"/><path class="cls-1" d="M631.53,785.13H573.6a3.41,3.41,0,0,1-3.41-3.4V723.8a17,17,0,1,0-34.07,0v57.93a3.41,3.41,0,0,1-3.41,3.4H474.79a17,17,0,1,0,0,34.08h57.92a3.41,3.41,0,0,1,3.41,3.4v57.93a17,17,0,1,0,34.07,0V822.61a3.41,3.41,0,0,1,3.41-3.4h57.93a17,17,0,0,0,0-34.08Z"/></svg>