<svg id="Capa_1" data-name="Capa 1" xmlns="http://www.w3.org/2000/svg" viewBox="0 0 500 395.45"><defs><style>.cls-1{fill:none;}.cls-2{fill:#99a0af;}</style></defs><title> ICONOS INACTIVOS </title><polygon class="cls-1" points="45.18 273.42 38.01 273.42 38.01 316.29 45.18 316.29 396.47 316.29 402.69 316.29 402.69 273.42 396.47 273.42 45.18 273.42"/><path class="cls-2" d="M417.81,168.25l-21.34,11.22-2.29,1.2a41,41,0,0,1-50.56-9.92,40.85,40.85,0,0,1-9.51-24,41.38,41.38,0,0,1,.48-9.41l2.15-12.56,2.36-13.76-8.42-8.21H51.77A50.53,50.53,0,0,0,1.24,153.38V343.93a50.53,50.53,0,0,0,50.53,50.52H389.88a50.53,50.53,0,0,0,50.53-50.52V180.12l-22-11.55Zm-15.11,148H38V273.42H402.7Z"/><path class="cls-2" d="M495.19,71.45a11.78,11.78,0,0,0-6.53-20.09L453.13,46.2a11.74,11.74,0,0,1-8.87-6.44L428.37,7.56a11.78,11.78,0,0,0-21.12,0l-15.89,32.2a11.77,11.77,0,0,1-8.87,6.44L347,51.36a11.78,11.78,0,0,0-6.53,20.09l25.71,25.06a11.56,11.56,0,0,1,3.1,6.34,11.51,11.51,0,0,1,.29,4.09l-3.06,17.88-3,17.51a11.4,11.4,0,0,0,.25,4.46,11.6,11.6,0,0,0,16.84,8L393.43,148l18.9-9.94a12.43,12.43,0,0,1,1.37-.33,11.77,11.77,0,0,1,4.11-1,11.93,11.93,0,0,1,5.48,1.35l16.44,8.65,15.34,8.07a11.76,11.76,0,0,0,17.09-12.42l-6.07-35.39a11.79,11.79,0,0,1,3.38-10.43Z"/></svg>