<svg id="Capa_1" data-name="Capa 1" xmlns="http://www.w3.org/2000/svg" viewBox="0 0 329.74 370.06"><defs><style>.cls-1{fill:#99a0af;}.cls-2{fill:#fff;}</style></defs><title>TWINBUSINESS ICONOS</title><path class="cls-1" d="M316.54,105.93c0-.1-.06-.18-.07-.29a6.65,6.65,0,0,0-.46-1.83c-.06-.15-.11-.32-.18-.47l-.05-.07c-.07-.13-.1-.27-.17-.39l-19.79-33a6.57,6.57,0,0,0-5.65-3.2h-19a6.68,6.68,0,0,0-1.84.37l-1.39-6-4.55-19.7a7,7,0,0,0-1.54-2.9,6.15,6.15,0,0,0-6.6-2.27l-87,21.74a2.23,2.23,0,0,0,0-.27l-6-50.82A6.6,6.6,0,0,0,155,1.06l-110.3,13a6.51,6.51,0,0,0-5.17,4,6.49,6.49,0,0,0-.6,3.36l4.63,39.14.72,6.14H39.57a6.57,6.57,0,0,0-5.65,3.2l-19.79,33c-.07.12-.1.26-.17.39a5.15,5.15,0,0,0-.23.54,6.65,6.65,0,0,0-.46,1.83c0,.11-.07.19-.07.29l-13,252.6L0,363.13a6.6,6.6,0,0,0,6.59,6.93H323.14a6.61,6.61,0,0,0,6.59-6.93Zm-39.72-6.67-1.33-5.73-3.15-13.64h14.09l8.19,13.64,3.68,6.14H276.83C276.81,99.53,276.85,99.4,276.82,99.26ZM164.87,229.44a40.78,40.78,0,0,0,40.74-40.74V155.37a8.54,8.54,0,0,1-.51-2.94,8.73,8.73,0,0,1,8.72-8.72h.51a8.73,8.73,0,0,1,8.72,8.72V188.7a58.18,58.18,0,0,1-116.36,0V152.43a8.72,8.72,0,1,1,17.44,0V188.7A40.78,40.78,0,0,0,164.87,229.44ZM263,99.67H161.55a7.35,7.35,0,0,0-.08-2.19l-.91-4-4.21-18.17,94.71-23.69.83-.2ZM53.8,26.3,150,14.93l4.41,37.36.82,6.91a6.16,6.16,0,0,0,.61,1.86l-9.22,2.3a7,7,0,0,0-5,8.46l6.43,27.85H61.48L52.83,26.42ZM35.12,93.53,43.3,79.89h2.56l1.62,13.64.72,6.14H31.43Z"/><path class="cls-2" d="M115.41,143.71a8.73,8.73,0,0,0-8.72,8.72V188.7a58.18,58.18,0,0,0,116.36,0V152.43a8.73,8.73,0,0,0-8.72-8.72h-.51a8.73,8.73,0,0,0-8.72,8.72,8.54,8.54,0,0,0,.51,2.94V188.7a40.74,40.74,0,0,1-81.48,0V152.43A8.73,8.73,0,0,0,115.41,143.71Z"/></svg>