<svg id="Capa_1" data-name="Capa 1" xmlns="http://www.w3.org/2000/svg" viewBox="0 0 259.55 259.54"><defs><style>.cls-1{fill:#fff;}.cls-2{fill:#ff9600;}</style></defs><title>TWINBUSINESS ICONOS</title><path class="cls-1" d="M203.41,133.32c-4.17-4-9.29-6.29-14.54-8.4-.77-.31-1.89-.35-2.08-1.3-.21-1.14,1-1.53,1.67-2.11a49.84,49.84,0,0,0,6.66-5.84c7.78-9.1,9.09-19.59,6.27-30.72-2.3-9.09-7.74-15.86-16.5-19.72A106.37,106.37,0,0,0,160,57.72c-4.49-.77-4.44-.78-4.3-5.49.23-8.11.35-16.23.62-24.34.06-2.08-.67-3-2.77-3-3.91,0-7.83-.12-11.74-.22-4.56-.12-4.61-.11-4.72,4.49-.19,7.83-.42,15.66-.49,23.49,0,2.15-.78,2.89-2.88,2.77-2.95-.16-5.91-.13-8.88-.17-3.68,0-4.1-.47-4-4.15.19-8,.32-16,.59-24.06.07-2-.41-2.95-2.66-2.93-4.48,0-9-.15-13.46-.37-2.24-.11-3.09.85-3.13,3-.13,8.11-.36,16.23-.5,24.35-.08,4.56-.16,4.64-4.68,4.52-10.59-.28-21.19-.49-31.79-.81-2-.06-2.7.7-2.7,2.66,0,4.78-.07,9.56-.32,14.32-.12,2.4.81,3.3,3.09,3.33,3.44,0,6.89,0,10.31.33C83.8,76.16,87,79.94,86.84,88.2q-.61,27.08-1.17,54.14c-.21,9.36-.39,18.72-.65,28.07-.18,6.71-3,9.33-9.67,9.17-3-.08-6.11,0-9.16-.15-2-.1-2.95.65-3.32,2.63-1,5.54-2.11,11.08-3.36,16.57-.52,2.29.3,2.88,2.39,2.92,10.69.21,21.38.51,32.08.72,4.25.09,4.26,0,4.15,4.38-.21,8.4-.36,16.8-.66,25.2-.08,2.4.67,3.55,3.2,3.52,3.72,0,7.45.08,11.17.16,4.87.11,4.83.11,4.91-4.85.13-7.93.39-15.85.47-23.78,0-2.28.88-3,3.12-2.85,2.85.22,5.72.16,8.59.22,3.88.09,4.14.38,4,4.34-.2,8.11-.31,16.23-.61,24.34-.09,2.39.69,3.26,3.07,3.22,3.91-.07,7.83.1,11.74.19,4.34.1,4.36,0,4.44-4.43.14-8.11.4-16.23.49-24.35,0-2.39,1-3.42,3.33-3.62,3.53-.28,7-.83,10.54-1.26,5.11-.62,10.25-1,15.26-2.45,9.76-2.73,18.25-7.33,24-16s7.09-18.21,7.15-28.19C212.48,147.29,209.87,139.57,203.41,133.32ZM120.46,81.2c0-1.82.5-3.16,2.7-3.22,10.53-.27,21-.13,31,3.83,6.68,2.65,11.16,7.19,12.06,14.63a16.61,16.61,0,0,1-9.5,17.38c-7.2,3.56-15,4.08-22.86,4.3-3.71.1-7.43-.17-11.15-.21-2,0-3.12-.54-3-3C120,103.7,120.23,92.45,120.46,81.2Zm44,94a40,40,0,0,1-7.44,2.94,47.06,47.06,0,0,1-9.59,2.09c-9.91,1.2-18.49.63-27.07.42-2.19,0-2.11-1.45-2.07-2.94.25-11.26.46-22.52.78-33.78.21-7.21.28-7.13,7.47-7.09,9.47,0,18.93.06,28.14,2.64,6,1.7,11.83,3.85,15.79,9.17A17.92,17.92,0,0,1,164.46,175.22Z"/><path class="cls-2" d="M258.6,114.14C250,43.15,184.72-8,114,1.05,43.15,9.38-7.43,74.55.9,145c8.42,71.25,73.68,122.12,144.29,113.66C216.31,250.09,267.19,184.84,258.6,114.14Zm-77.37,86.11c-5,1.4-10.15,1.83-15.26,2.45-3.51.43-7,1-10.54,1.26-2.38.2-3.31,1.23-3.33,3.62-.09,8.12-.35,16.24-.49,24.35-.08,4.46-.1,4.53-4.44,4.43-3.91-.09-7.83-.26-11.74-.19-2.38,0-3.16-.83-3.07-3.22.3-8.11.41-16.23.61-24.34.1-4-.16-4.25-4-4.34-2.87-.06-5.74,0-8.59-.22-2.24-.18-3.1.57-3.12,2.85-.08,7.93-.34,15.85-.47,23.78-.08,5,0,5-4.91,4.85-3.72-.08-7.45-.2-11.17-.16-2.53,0-3.28-1.12-3.2-3.52.3-8.4.45-16.8.66-25.2.11-4.33.1-4.29-4.15-4.38-10.7-.21-21.39-.51-32.08-.72-2.09,0-2.91-.63-2.39-2.92,1.25-5.49,2.33-11,3.36-16.57.37-2,1.32-2.73,3.32-2.63,3,.15,6.11.07,9.16.15,6.65.16,9.49-2.46,9.67-9.17.26-9.35.44-18.71.65-28.07q.58-27.07,1.17-54.14c.2-8.26-3-12-11.28-12.73-3.42-.29-6.87-.29-10.31-.33-2.28,0-3.21-.93-3.09-3.33.25-4.76.31-9.54.32-14.32,0-2,.68-2.72,2.7-2.66,10.6.32,21.2.53,31.79.81,4.52.12,4.6,0,4.68-4.52.14-8.12.37-16.24.5-24.35,0-2.16.89-3.12,3.13-3,4.49.22,9,.4,13.46.37,2.25,0,2.73.88,2.66,2.93-.27,8-.4,16-.59,24.06-.09,3.68.33,4.11,4,4.15,3,0,5.93,0,8.88.17,2.1.12,2.86-.62,2.88-2.77.07-7.83.3-15.66.49-23.49.11-4.6.16-4.61,4.72-4.49,3.91.1,7.83.21,11.74.22,2.1,0,2.83.9,2.77,3-.27,8.11-.39,16.23-.62,24.34-.14,4.71-.19,4.72,4.3,5.49a106.37,106.37,0,0,1,24.91,7.51c8.76,3.86,14.2,10.63,16.5,19.72,2.82,11.13,1.51,21.62-6.27,30.72a49.84,49.84,0,0,1-6.66,5.84c-.71.58-1.88,1-1.67,2.11.19.95,1.31,1,2.08,1.3,5.25,2.11,10.37,4.37,14.54,8.4,6.46,6.25,9.07,14,9,22.76-.06,10-1.44,19.65-7.15,28.19S191,197.52,181.23,200.25Z"/><path class="cls-2" d="M154.68,139.5c-9.21-2.58-18.67-2.59-28.14-2.64-7.19,0-7.26-.12-7.47,7.09-.32,11.26-.53,22.52-.78,33.78,0,1.49-.12,2.89,2.07,2.94,8.58.21,17.16.78,27.07-.42a47.06,47.06,0,0,0,9.59-2.09,40,40,0,0,0,7.44-2.94,17.92,17.92,0,0,0,6-26.55C166.51,143.35,160.71,141.2,154.68,139.5Z"/><path class="cls-2" d="M122.72,117.91c3.72,0,7.44.31,11.15.21,7.84-.22,15.66-.74,22.86-4.3a16.61,16.61,0,0,0,9.5-17.38c-.9-7.44-5.38-12-12.06-14.63-10-4-20.48-4.1-31-3.83-2.2.06-2.66,1.4-2.7,3.22-.23,11.25-.42,22.5-.78,33.74C119.6,117.37,120.69,117.9,122.72,117.91Z"/></svg>