<svg id="Capa_1" data-name="Capa 1" xmlns="http://www.w3.org/2000/svg" viewBox="0 0 267.39 337.01"><defs><style>.cls-1{fill:#99a0af;}.cls-2{fill:#fff;}</style></defs><title> ICONOS INACTIVOS </title><path class="cls-1" d="M258.84,290l-65.56-65.56c23.15-39.39,17.95-91-15.82-124.74a102.87,102.87,0,1,0-20.62,161.24l65.53,65.52A25.78,25.78,0,1,0,258.84,290ZM68.53,208.61A51.23,51.23,0,1,1,141,136.15h0a51.24,51.24,0,0,1-72.46,72.46Z"/><path class="cls-2" d="M160.56,108.72a10.71,10.71,0,0,1-7.56-3.15L113.66,66.24a14.17,14.17,0,0,1,0-20l4.93-4.93a14.18,14.18,0,0,1,20,0L160.56,63.2,224.3-.54a14.12,14.12,0,0,1,10-4.15,13,13,0,0,1,10,4.16l4.92,4.92a14.15,14.15,0,0,1,0,20l-81.15,81.15A10.71,10.71,0,0,1,160.56,108.72ZM128.61,44.56a6.75,6.75,0,0,0-4.77,2l-4.92,4.93a6.74,6.74,0,0,0,0,9.52l39.34,39.34a3.35,3.35,0,0,0,4.59,0L244,19.17a6.74,6.74,0,0,0,0-9.52h0l-4.93-4.93a6.68,6.68,0,0,0-4.75-2h0a6.69,6.69,0,0,0-4.76,2l-69,69L133.37,46.53A6.74,6.74,0,0,0,128.61,44.56Z"/><path class="cls-1" d="M244,19.16l-81.14,81.15h0a3.36,3.36,0,0,1-4.59,0L118.92,61a6.74,6.74,0,0,1,0-9.52l4.92-4.93a6.75,6.75,0,0,1,9.53,0l27.19,27.2,69-69a6.91,6.91,0,0,1,9.53,0L244,9.63a6.72,6.72,0,0,1,0,9.53Z"/></svg>