<svg id="Capa_1" data-name="Capa 1" xmlns="http://www.w3.org/2000/svg" viewBox="0 0 434.85 500"><defs><style>.cls-1{fill:#22a5fd;}.cls-2{fill:#fff;}</style></defs><title>TWINBUSINESS ICONOS ACTIVOS </title><path class="cls-1" d="M234.9,280.64H106.14A105.26,105.26,0,0,0,1,385.78V477.1a21,21,0,0,0,21,21H319a21,21,0,0,0,21-21V385.78A105.26,105.26,0,0,0,234.9,280.64Z"/><path class="cls-1" d="M170.52,1.88A126.41,126.41,0,1,0,297,128.31,126.57,126.57,0,0,0,170.52,1.88Z"/><path class="cls-2" d="M236.54,398.76a97.74,97.74,0,0,0,34.35,74.43A23.67,23.67,0,0,0,277,488.06c4.36,4.79,12.37,6.44,18.64,6.05.8,0,1.59-.05,2.29-.11a20.51,20.51,0,0,0,3-.54,15.59,15.59,0,0,0,4.25-1.23,96.74,96.74,0,0,0,27.37,4.47h3.57c13.33-.28,28.58-3.95,41.67-10a105.71,105.71,0,0,0,36.32,6.35,79.57,79.57,0,0,0,9-.46,7.51,7.51,0,0,0,3.4-13.58c-2.84-2.13-8.17-14.8-11.18-25a97.93,97.93,0,0,0,8.56-95.25.68.68,0,0,0,.07-.2,29.13,29.13,0,0,0,1.37-7c.52-6.35-1.61-13.45-5.71-17.89A23.94,23.94,0,0,0,402,325.81c-.7,0-1.4.05-2.09.09a97.9,97.9,0,0,0-163.33,72.86"/><path class="cls-1" d="M250.39,398.76a84,84,0,0,1,132.3-68.82c-2,.89-4,1.87-6.17,2.95a199.78,199.78,0,0,0-18.86,11.24c-4.84,3.25-9.8,6.77-15.18,10.83-1.35,1-2.59,1.93-3.78,2.83l-4.46-18.57a4.46,4.46,0,0,0-3.83-3.37h-.67a4.42,4.42,0,0,0-4.17,3.79l-7.1,48.43a4.56,4.56,0,0,0,.93,3.44,4.33,4.33,0,0,0,3.13,1.61l48.85,3.45h.31a4.42,4.42,0,0,0,1.94-8.4l-18-8.75c1.18-1,2.42-2.08,3.77-3.21,4.77-4,9.15-7.54,13.42-10.73a168,168,0,0,1,15.77-10.68c1.54-.92,3-1.74,4.41-2.48l1.66-.88.11-.05c1.95-1.09,4-2.14,6.06-3,.9-.4,1.86-.77,2.87-1.11.51-.17,1-.3,1.54-.43a16,16,0,0,1,1.63-.3,13.22,13.22,0,0,1,3.32-.12l.42,0,.2,0h.06l.08,0H411l.34.09a1.37,1.37,0,0,1,.37.08c.27.09.58.15.84.24l.72.25a12.23,12.23,0,0,1,2.51,1.4,9.47,9.47,0,0,1,1.86,1.66,8.75,8.75,0,0,1,1.22,1.66,8.29,8.29,0,0,1,.64,1.43c.07.2.11.4.17.55a2.38,2.38,0,0,1,.05.41c.06.22.08.33.08.33l-.15-.31c-.06-.1-.11-.21-.19-.34l-.3-.47a8.05,8.05,0,0,0-1-1.09,8.85,8.85,0,0,0-1.46-1.11,10.42,10.42,0,0,0-1.93-.88,11.43,11.43,0,0,0-1.16-.32c-2.56-.47-7.34.53-9.27,2.08A84,84,0,0,1,402,448.84a7.62,7.62,0,0,0-1.26,6.46,148,148,0,0,0,8.52,23.64,88,88,0,0,1-28.22-6.34,7.68,7.68,0,0,0-6.36.25c-12.31,6.15-27.74,10-40.24,10a83.55,83.55,0,0,1-35.09-7.67h0a11.16,11.16,0,0,0-3.2,6.85c0,.45,0,.9,0,1.33a11.94,11.94,0,0,0,.45,2.35,9.82,9.82,0,0,0,.81,1.93,5,5,0,0,0,.55.83c-.38-.21-1.73-1-2.07-1.15a.06.06,0,0,0-.05,0,8.09,8.09,0,0,1-.67-.9c-.29-.45-.57-1-.86-1.5-.15-.33-.28-.64-.43-1a13.56,13.56,0,0,1-.83-3.12c0-.28-.05-.56-.09-.88s0-.62,0-1v-.43l0-.39V478s0-.06,0-.08v-.07l0-.23.06-.45c.52-3.6,2.53-6.88,4.73-9.72,1-1.31,4.29-4.89,6.37-7.07l1.64-1.65s0,0,0,0c6.57-5.8,13.08-11.06,20.2-16.46,1.39-1.05,2.68-2,3.9-2.93l4.52,19.29a4.38,4.38,0,0,0,8.52,0,2.1,2.1,0,0,0,.06-.31l7.35-47.87a4.27,4.27,0,0,0-.9-3.35,4.46,4.46,0,0,0-3.09-1.66l-48.27-3.73a4.36,4.36,0,0,0-4.56,3.23,2.93,2.93,0,0,0-.11.65,4.35,4.35,0,0,0,2.38,4.4l16.93,8.36q-1.66,1.38-3.55,3c-5.08,4.31-9.57,8.35-13.73,12.29-5.71,5.44-15.24,15.76-15.86,16.81a56.26,56.26,0,0,0-5.07,7.32,83.75,83.75,0,0,1-24.23-59m-15.27,0A99.18,99.18,0,0,0,270,474.27a24,24,0,0,0,6.17,15.09c4.43,4.86,12.56,6.53,18.92,6.14.81,0,1.61-.06,2.32-.12a22.52,22.52,0,0,0,3.08-.54,15.72,15.72,0,0,0,4.32-1.26,98,98,0,0,0,27.76,4.54h3.63c13.51-.29,29-4,42.26-10.13a107.22,107.22,0,0,0,36.86,6.44,80.57,80.57,0,0,0,9.12-.47,7.62,7.62,0,0,0,3.45-13.78c-2.89-2.15-8.29-15-11.35-25.33a99.36,99.36,0,0,0,8.69-96.63,1.18,1.18,0,0,0,.07-.2,29.36,29.36,0,0,0,1.39-7.06c.53-6.43-1.63-13.64-5.8-18.14a24.26,24.26,0,0,0-17.92-8.07c-.71,0-1.43.05-2.12.09a99.31,99.31,0,0,0-165.7,73.92"/></svg>