<svg id="Capa_1" data-name="Capa 1" xmlns="http://www.w3.org/2000/svg" viewBox="0 0 500 241.9"><defs><style>.cls-1{fill:#3395ff;}</style></defs><title>TWINBUSINESS ICONOS</title><path class="cls-1" d="M388.22,236.9a8.6,8.6,0,0,1-8.57-8.58V195.16l-147,1.18c-4.76-.27-8.61-3.77-8.65-8.51a8.58,8.58,0,0,1,8.51-8.65l155.66-1.24a8.36,8.36,0,0,1,6.11,2.49,8.58,8.58,0,0,1,2.53,6.09v25.34l78.94-55.16-79.67-59v22.2a8.58,8.58,0,0,1-2.52,6.07c-1.61,1.61-3.67,2.83-6.08,2.5l-269.18-.52.48,29.52a8.59,8.59,0,0,1-13.45,7.2L4.71,95.31a8.58,8.58,0,0,1-.29-13.92L103.68,6.74a8.58,8.58,0,0,1,13.73,6.85V40.43h149.5a8.58,8.58,0,1,1,0,17.15H108.83A8.57,8.57,0,0,1,100.26,49V30.78l-76,57.16L101.34,141l-.35-21.6a8.57,8.57,0,0,1,8.58-8.71h0l269.32.52V80.62a8.58,8.58,0,0,1,13.69-6.89L495.53,150a8.58,8.58,0,0,1-.2,13.93L393.14,235.35A8.56,8.56,0,0,1,388.22,236.9Z"/></svg>