<svg id="Capa_1" data-name="Capa 1" xmlns="http://www.w3.org/2000/svg" viewBox="0 0 497 498.5"><defs><style>.cls-1{fill:#3395ff;}</style></defs><title>compartir </title><path class="cls-1" d="M404,316.48c-28.71,0-54,13.68-70.57,34.63L179.91,272.65a89.81,89.81,0,0,0,3.45-23.38,89.13,89.13,0,0,0-4.11-25.35L332,145.79a90,90,0,1,0-18.4-54.15,89.38,89.38,0,0,0,3.48,23.45L163.67,193.58c-16.57-21-41.94-34.68-70.69-34.68a90.36,90.36,0,0,0,0,180.72c29.54,0,55.5-14.36,72-36.28l152.72,78.11a89.32,89.32,0,0,0-4.13,25.41A90.36,90.36,0,1,0,404,316.48Z"/></svg>