<svg id="Capa_1" data-name="Capa 1" xmlns="http://www.w3.org/2000/svg" viewBox="0 0 458.09 500"><defs><style>.cls-1{fill:#3395ff;}</style></defs><title>TWINBUSINESS ICONOS</title><path class="cls-1" d="M402.92,83.32H157.44a54.23,54.23,0,0,0-54.16,54.17V444.34a54.23,54.23,0,0,0,54.16,54.16H402.92a54.23,54.23,0,0,0,54.17-54.16V137.49A54.23,54.23,0,0,0,402.92,83.32ZM129.78,137.49a27.69,27.69,0,0,1,27.66-27.66H402.92a27.7,27.7,0,0,1,27.67,27.66V444.34A27.7,27.7,0,0,1,402.92,472H157.44a27.7,27.7,0,0,1-27.66-27.67Z"/><path class="cls-1" d="M75.62,410.63H55.16A27.69,27.69,0,0,1,27.5,383V55.66A27.7,27.7,0,0,1,55.16,28H300.64a27.7,27.7,0,0,1,27.67,27.66,13.25,13.25,0,1,0,26.49,0A54.22,54.22,0,0,0,300.64,1.5H55.16A54.23,54.23,0,0,0,1,55.66V383a54.23,54.23,0,0,0,54.16,54.16H75.62a13.25,13.25,0,1,0,0-26.5Z"/></svg>