<svg id="Capa_1" data-name="Capa 1" xmlns="http://www.w3.org/2000/svg" viewBox="0 0 442.81 500"><defs><style>.cls-1{fill:#22a5fd;}</style></defs><title>TWINBUSINESS ICONOS ACTIVOS </title><path class="cls-1" d="M120.16,2C45.55,2,1,27.34,1,69.8V430.2C1,472.66,45.55,498,120.16,498s119.17-25.36,119.17-67.82V69.8C239.33,27.34,194.78,2,120.16,2ZM220,430.2c0,30.33-37.3,48.44-99.79,48.44S20.38,460.53,20.38,430.2V411.44c19.83,17,54.2,26.51,99.78,26.51s80-9.47,99.79-26.51Zm0-60.07c0,30.33-37.3,48.44-99.79,48.44s-99.78-18.11-99.78-48.44V351.37c19.83,17.05,54.2,26.51,99.78,26.51s80-9.46,99.79-26.51Zm0-60.06c0,30.33-37.3,48.44-99.79,48.44S20.38,340.4,20.38,310.07V291.3c19.83,17.05,54.2,26.52,99.78,26.52s80-9.47,99.79-26.52ZM220,250c0,30.33-37.3,48.44-99.79,48.44S20.38,280.33,20.38,250V231.24c19.83,17,54.2,26.51,99.78,26.51s80-9.46,99.79-26.51Zm0-60.07c0,30.34-37.3,48.44-99.79,48.44s-99.78-18.1-99.78-48.44V171.17c19.83,17.05,54.2,26.51,99.78,26.51,45.15,0,79.78-10.08,99.79-27.83Zm0-62c0,14.61-8.18,26.52-24.32,35.4-17.82,9.8-43.91,15-75.47,15-62.48,0-99.78-18.11-99.78-48.44V111.11c19.83,17,54.2,26.51,99.78,26.51s80-9.47,99.79-26.51Zm-99.79-9.69c-62.48,0-99.78-18.11-99.78-48.44s37.3-48.44,99.78-48.44S220,39.47,220,69.8,182.65,118.24,120.16,118.24Z"/><path class="cls-1" d="M337.92,174.74c-65.06,0-103.9,22.1-103.9,59.13v152c0,37,38.84,59.13,103.9,59.13s103.89-22.11,103.89-59.13v-152C441.81,196.84,403,174.74,337.92,174.74Zm87,211.17c0,26.45-32.53,42.23-87,42.23s-87-15.78-87-42.23V371.24c17.3,14.87,47.26,23.12,87,23.12s69.7-8.25,87-23.12Zm0-50.68c0,26.45-32.53,42.23-87,42.23s-87-15.78-87-42.23V320.56c17.3,14.86,47.26,23.12,87,23.12s69.7-8.26,87-23.12Zm0-50.68c0,26.44-32.53,42.23-87,42.23s-87-15.79-87-42.23V269.88c17.3,14.86,47.26,23.12,87,23.12s69.7-8.26,87-23.12Zm-87-8.45c-54.48,0-87-15.79-87-42.23s32.53-42.24,87-42.24,87,15.79,87,42.24S392.39,276.1,337.92,276.1Z"/></svg>