<svg id="Capa_1" data-name="Capa 1" xmlns="http://www.w3.org/2000/svg" viewBox="0 0 500 352.91"><defs><style>.cls-1{fill:#27a2fb;}.cls-2{fill:#3395ff;}</style></defs><title>TWINBUSINESS ICONOS</title><rect class="cls-1" x="144.56" y="320.48" width="354.44" height="29.65"/><rect class="cls-2" x="165.41" y="124.93" width="41.7" height="183.33"/><rect class="cls-2" x="300.92" y="124.93" width="41.7" height="183.33"/><rect class="cls-2" x="436.45" y="124.93" width="41.7" height="183.33"/><polygon class="cls-2" points="499 100.49 321.77 2.71 144.56 100.49 144.56 112.71 499 112.71 499 100.49"/><path class="cls-2" d="M125.22,219.21,81.87,263.13V145.43a10.11,10.11,0,1,0-20.22,0v117.7L18.31,219.21A10.11,10.11,0,1,0,3.91,233.4l60.65,61.46a10.09,10.09,0,0,0,14.4,0l60.65-61.46a10.1,10.1,0,0,0-14.39-14.19Z"/></svg>