<svg id="Capa_1" data-name="Capa 1" xmlns="http://www.w3.org/2000/svg" viewBox="0 0 446.96 392.03"><defs><style>.cls-1{fill:#99a0af;}</style></defs><title> ICONOS INACTIVOS </title><path class="cls-1" d="M424.64,35.33H245.06a20.44,20.44,0,0,1-19.21-13.47L223,14A20.44,20.44,0,0,0,203.78.5H22.32A20.44,20.44,0,0,0,1.88,20.94v308.3a20.44,20.44,0,0,0,20.44,20.44H168.11c-25.81-50.92-56.18-117.93-56.18-151.38a111.56,111.56,0,0,1,223.11,0c0,33.45-30.38,100.46-56.19,151.38H424.64a20.44,20.44,0,0,0,20.44-20.44V55.76A20.44,20.44,0,0,0,424.64,35.33Z"/><path class="cls-1" d="M223.48,116a82.29,82.29,0,0,0-82.29,82.28c0,29.91,35.63,104.12,60,151.38,12.66,24.56,22.29,41.85,22.29,41.85s9.63-17.29,22.29-41.85c24.37-47.26,60-121.47,60-151.38A82.28,82.28,0,0,0,223.48,116Zm0,110.08A37.53,37.53,0,1,1,261,188.57,37.53,37.53,0,0,1,223.48,226.1Z"/></svg>