<svg id="Capa_1" data-name="Capa 1" xmlns="http://www.w3.org/2000/svg" viewBox="0 0 294.67 289.28"><defs><style>.cls-1{fill:#99a0af;}</style></defs><title> ICONOS INACTIVOS </title><path class="cls-1" d="M202.57,134.49V49.12a8.1,8.1,0,0,0-5-7.48L103.35,2.14A8.11,8.11,0,0,0,92.1,9.62V59.71A8.11,8.11,0,0,1,84,67.82H10.33a8.11,8.11,0,0,0-8.11,8.11V279.67a8.11,8.11,0,0,0,8.11,8.11H114.91a8.11,8.11,0,0,0,8.11-8.11v-52a8.11,8.11,0,0,1,8.11-8.11h32.41a8.11,8.11,0,0,1,8.11,8.11v52a8.11,8.11,0,0,0,8.11,8.11H284.35a8.11,8.11,0,0,0,8.11-8.11v-129a8.11,8.11,0,0,0-8.11-8.11H210.68A8.11,8.11,0,0,1,202.57,134.49ZM68.53,237.1H36.11A8.11,8.11,0,0,1,28,229h0a8.11,8.11,0,0,1,8.11-8.11H68.53A8.12,8.12,0,0,1,76.64,229h0A8.12,8.12,0,0,1,68.53,237.1Zm0-49.34H36.11A8.11,8.11,0,0,1,28,179.65h0a8.11,8.11,0,0,1,8.11-8.11H68.53a8.12,8.12,0,0,1,8.11,8.11h0A8.12,8.12,0,0,1,68.53,187.76Zm0-49.34H36.11A8.11,8.11,0,0,1,28,130.31h0a8.11,8.11,0,0,1,8.11-8.11H68.53a8.12,8.12,0,0,1,8.11,8.11h0A8.12,8.12,0,0,1,68.53,138.42Zm95,49.34H131.13a8.11,8.11,0,0,1-8.11-8.11h0a8.11,8.11,0,0,1,8.11-8.11h32.41a8.11,8.11,0,0,1,8.11,8.11h0A8.11,8.11,0,0,1,163.54,187.76Zm0-49.34H131.13a8.11,8.11,0,0,1-8.11-8.11h0a8.11,8.11,0,0,1,8.11-8.11h32.41a8.11,8.11,0,0,1,8.11,8.11h0A8.11,8.11,0,0,1,163.54,138.42Zm0-50.08H131.13A8.11,8.11,0,0,1,123,80.23h0a8.11,8.11,0,0,1,8.11-8.11h32.41a8.11,8.11,0,0,1,8.11,8.11h0A8.11,8.11,0,0,1,163.54,88.34Zm88.9,148.76H220a8.11,8.11,0,0,1-8.11-8.11h0a8.11,8.11,0,0,1,8.11-8.11h32.42a8.11,8.11,0,0,1,8.11,8.11h0A8.11,8.11,0,0,1,252.44,237.1Zm0-49.34H220a8.11,8.11,0,0,1-8.11-8.11h0a8.11,8.11,0,0,1,8.11-8.11h32.42a8.11,8.11,0,0,1,8.11,8.11h0A8.11,8.11,0,0,1,252.44,187.76Z"/></svg>