<svg id="Capa_1" data-name="Capa 1" xmlns="http://www.w3.org/2000/svg" viewBox="0 0 248.26 398.71"><defs><style>.cls-1{fill:#8b8b8b;}.cls-2{fill:#303030;}.cls-3{fill:#353535;}.cls-4{fill:#0c0c0c;}</style></defs><title>TWINBUSINESS ICONOS</title><path class="cls-1" d="M.42,207.13c-.9-.68,0-1.11.27-1.56Q28.74,159,56.83,112.39,90,57.31,123.3,2.25c.3-.49.22-1.41,1.18-1.34a.25.25,0,0,1,.18.14,1.25,1.25,0,0,1,.07.23,43.83,43.83,0,0,1,.39,8.17l0,135.46a21.79,21.79,0,0,1-.22,4.71c-.33,1.27-1.4,1.79-2.46,2.26C111,157,99.63,162.22,88.24,167.39L52.72,183.52c-14,6.35-28,12.78-42.1,19.09C7.23,204.13,3.91,205.83.42,207.13Z"/><path class="cls-2" d="M124.11,150.36c0-1.08.09-2.15.09-3.23q0-71.4.06-142.79c0-1-.48-2.16.47-3.06q61.08,101.4,122.12,202.83c.52.87,2.23,1.69.83,3.17-12.69-6.1-25.6-11.73-38.4-17.6q-17.39-8-34.83-15.84L132.83,154.9a88.71,88.71,0,0,1-8.32-3.91A1.2,1.2,0,0,1,124.11,150.36Z"/><path class="cls-3" d="M.42,207.13c.8-1.46,2.41-1.67,3.71-2.26q46.64-21.26,93.31-42.42l26.67-12.09.2.18c1.13,1.45.77,3.17.77,4.8q0,60.56,0,121.11a14.78,14.78,0,0,1-.31,3.45c-1.07.88-1.69-.27-2.33-.65q-52.38-30.9-104.72-61.88Z"/><path class="cls-4" d="M124.77,279.9c-.73-.54-.53-1.34-.53-2.06q0-63.52.05-127.06a1.94,1.94,0,0,1,0-.24c5.67,2.07,11,4.83,16.53,7.29q24.09,10.83,48.1,21.81c10,4.55,20,9.16,30,13.72,8.87,4,17.76,8,26.63,12.12.83.38,2,.49,2.12,1.8q-16.71,9.94-33.43,19.88-44,26-87.95,52C125.8,279.41,125.28,279.64,124.77,279.9Z"/><path class="cls-1" d="M124.68,398.29c-1.13,1.17-1.14-.36-1.39-.7q-17.39-24.37-34.7-48.81Q45,287.37,1.46,226c-.34-.47-.63-1-1-1.58,1-.21,1.59.51,2.23.89q59.58,35.18,119.14,70.4c.91.54,1.75,1.3,2.93,1.15a4.47,4.47,0,0,1,.34,2.42q-.06,47.07,0,94.13A32.54,32.54,0,0,1,124.68,398.29Z"/><path class="cls-2" d="M124.68,398.29c-.89-.6-.5-1.51-.5-2.27q0-48.31,0-96.61a3.66,3.66,0,0,1,.56-2.6l123.06-72.7.33.32c-1.92,2.71-3.83,5.43-5.75,8.13Q183.54,315.42,124.68,398.29Z"/></svg>