<svg id="Capa_1" data-name="Capa 1" xmlns="http://www.w3.org/2000/svg" viewBox="0 0 407.29 208.74"><defs><style>.cls-1{fill:#99a0af;}.cls-2{fill:#fff;}</style></defs><title>TWINBUSINESS ICONOS</title><path class="cls-1" d="M202.2,166.72l-.39-30.05-30.05.39.39,30.05Zm-19.07-22.29,7.51-.1a3.75,3.75,0,0,1,3.8,3.71l.1,7.51a3.76,3.76,0,0,1-3.71,3.81l-7.51.09a3.76,3.76,0,0,1-3.81-3.7l-.09-7.52A3.75,3.75,0,0,1,183.13,144.43Z"/><path class="cls-1" d="M104.54,168l-.39-30.05-30,.39.38,30ZM85.47,145.7l7.51-.1a3.76,3.76,0,0,1,3.81,3.71l.09,7.51a3.75,3.75,0,0,1-3.7,3.8l-7.52.1a3.75,3.75,0,0,1-3.8-3.71l-.1-7.51A3.76,3.76,0,0,1,85.47,145.7Z"/><path class="cls-1" d="M103.28,70.33l-.4-30-30,.39.39,30.05ZM84.2,48l7.51-.1a3.77,3.77,0,0,1,3.81,3.71l.1,7.51A3.77,3.77,0,0,1,91.91,63l-7.51.1a3.77,3.77,0,0,1-3.81-3.71l-.1-7.51A3.77,3.77,0,0,1,84.2,48Z"/><path class="cls-1" d="M170.49,39.41l.39,30,30.05-.38-.39-30ZM189.56,61.7l-7.51.1a3.76,3.76,0,0,1-3.8-3.71l-.1-7.51a3.76,3.76,0,0,1,3.71-3.81l7.51-.09a3.75,3.75,0,0,1,3.8,3.7l.1,7.51A3.76,3.76,0,0,1,189.56,61.7Z"/><path class="cls-1" d="M406.55,1.42a1.63,1.63,0,0,1-.11-.17A2.1,2.1,0,0,0,404.37.4L316.51.6a3.27,3.27,0,0,0-2.92,2.87c-.14,1.12-3.74,27.12-27.1,26.44C263.2,29.07,261.4,5.13,261.31,3.77A2.89,2.89,0,0,0,258.42,1h0L2.91,2.33a2.91,2.91,0,0,0-2.06.85.91.91,0,0,0-.08.13A2.86,2.86,0,0,0,0,5.25l1.09,200.6A2.9,2.9,0,0,0,4,208.74H4l255.11-.85A3.26,3.26,0,0,0,262,205c3.34-27.13,24.63-26.9,25.5-26.79,11.34.57,19.15,5.16,23.22,13.64a30.49,30.49,0,0,1,2.82,13.23,2.93,2.93,0,0,0,.81,2.14,2.9,2.9,0,0,0,2.09.89h0l87.66-.26A2.9,2.9,0,0,0,407,205l.26-201.65A2.89,2.89,0,0,0,406.55,1.42Zm-279.42,170a3.76,3.76,0,1,1-7.51.1l-.3-22.54a3.77,3.77,0,0,1,3.71-3.8l15-.2a3.76,3.76,0,1,1,.1,7.52l-11.27.14ZM70,108.33a3.76,3.76,0,1,1-3.71,3.81A3.76,3.76,0,0,1,70,108.33ZM66.05,97.11a3.77,3.77,0,0,1,3.71-3.8l37.56-.49a3.76,3.76,0,1,1,.1,7.51l-37.56.49A3.76,3.76,0,0,1,66.05,97.11Zm4.2,33.76,37.56-.49a3.76,3.76,0,0,1,3.81,3.71l.48,37.56a3.75,3.75,0,0,1-3.7,3.8l-37.56.49A3.76,3.76,0,0,1,67,172.23l-.49-37.56A3.77,3.77,0,0,1,70.25,130.87Zm14.83-15.22a3.76,3.76,0,0,1-.1-7.51l52.59-.69a3.77,3.77,0,0,1,3.8,3.71l.29,22.54a3.76,3.76,0,0,1-7.51.1L133.91,115Zm33.56-19.22a3.75,3.75,0,0,1,3.71-3.8l15-.2a3.76,3.76,0,1,1,.1,7.51l-15,.2A3.77,3.77,0,0,1,118.64,96.43Zm19.71,71.12,11.26-.15-.53-41.31a3.76,3.76,0,1,1,7.51-.1l.59,45.07a3.77,3.77,0,0,1-3.71,3.81l-15,.19a3.76,3.76,0,1,1-.09-7.51Zm10.53-56.49a3.76,3.76,0,1,1,3.81,3.71A3.77,3.77,0,0,1,148.88,111.06Zm3.61-11.31a3.75,3.75,0,0,1-3.8-3.71l-.25-18.78-26.29.34a3.75,3.75,0,0,1-3.8-3.71l-.49-37.55a3.76,3.76,0,1,1,7.51-.1l.44,33.8,26.29-.34a3.76,3.76,0,0,1,3.81,3.71l.24,18.78L167.42,92a3.76,3.76,0,0,1,.09,7.51Zm-4.58-63.81a3.76,3.76,0,1,1,7.51-.09l.29,22.53a3.75,3.75,0,0,1-3.7,3.81l-15,.19a3.76,3.76,0,0,1-.1-7.51l11.27-.15Zm56.87,40.59L167.22,77a3.77,3.77,0,0,1-3.8-3.71l-.49-37.56a3.76,3.76,0,0,1,3.71-3.81l37.56-.48a3.75,3.75,0,0,1,3.8,3.7l.49,37.56A3.76,3.76,0,0,1,204.78,76.53Zm4,18.73a3.75,3.75,0,0,1-3.7,3.81l-22.54.29a3.76,3.76,0,1,1-.1-7.51l22.54-.3A3.76,3.76,0,0,1,208.78,95.26Zm-41.17,11.8,37.56-.48a3.76,3.76,0,1,1,.1,7.51l-37.56.49a3.76,3.76,0,0,1-.1-7.52Zm.3,22.54,37.56-.49a3.77,3.77,0,0,1,3.8,3.71l.49,37.56a3.77,3.77,0,0,1-3.71,3.81l-37.56.48a3.75,3.75,0,0,1-3.8-3.7l-.49-37.57A3.75,3.75,0,0,1,167.91,129.6ZM69,33.21l37.56-.49a3.77,3.77,0,0,1,3.81,3.71L110.84,74a3.77,3.77,0,0,1-3.71,3.81l-37.56.49a3.77,3.77,0,0,1-3.81-3.71L65.27,37A3.77,3.77,0,0,1,69,33.21ZM290.74,83.58a5.73,5.73,0,1,1-11.46-.26l.51-22.58a5.73,5.73,0,1,1,11.46.27Zm-6.5,33.52a5.75,5.75,0,0,1,5.6,5.9l-.51,22.57a5.73,5.73,0,1,1-11.46-.26l.51-22.57A5.75,5.75,0,0,1,284.24,117.1Z"/><path class="cls-2" d="M285.66,55.11a5.75,5.75,0,0,0-5.87,5.63l-.51,22.58a5.73,5.73,0,1,0,11.46.26L291.25,61A5.74,5.74,0,0,0,285.66,55.11Z"/><path class="cls-2" d="M277.87,145.31a5.73,5.73,0,1,0,11.46.26l.51-22.57a5.73,5.73,0,1,0-11.46-.26Z"/><path class="cls-2" d="M152.69,114.77a3.76,3.76,0,1,0-3.81-3.71A3.75,3.75,0,0,0,152.69,114.77Z"/><path class="cls-2" d="M70.06,115.84a3.76,3.76,0,1,0-3.81-3.7A3.75,3.75,0,0,0,70.06,115.84Z"/><path class="cls-2" d="M70.84,175.94l37.56-.49a3.75,3.75,0,0,0,3.7-3.8l-.48-37.56a3.76,3.76,0,0,0-3.81-3.71l-37.56.49a3.77,3.77,0,0,0-3.71,3.8L67,172.23A3.76,3.76,0,0,0,70.84,175.94Zm33.31-38,.39,30.05-30.05.39-.38-30Z"/><path class="cls-2" d="M69.57,78.29l37.56-.49A3.77,3.77,0,0,0,110.84,74l-.49-37.56a3.77,3.77,0,0,0-3.81-3.71L69,33.21A3.77,3.77,0,0,0,65.27,37l.49,37.56A3.77,3.77,0,0,0,69.57,78.29Zm33.31-38,.4,30-30,.4-.39-30.05Z"/><path class="cls-2" d="M204.2,31.46l-37.56.48a3.76,3.76,0,0,0-3.71,3.81l.49,37.56a3.77,3.77,0,0,0,3.8,3.71l37.56-.49a3.76,3.76,0,0,0,3.71-3.81L208,35.16A3.75,3.75,0,0,0,204.2,31.46Zm-33.32,38-.39-30,30-.39.39,30Z"/><path class="cls-2" d="M168.49,174.67l37.56-.48a3.77,3.77,0,0,0,3.71-3.81l-.49-37.56a3.77,3.77,0,0,0-3.8-3.71l-37.56.49a3.75,3.75,0,0,0-3.71,3.8l.49,37.57A3.75,3.75,0,0,0,168.49,174.67Zm33.32-38,.39,30.05-30,.39-.39-30.05Z"/><path class="cls-2" d="M85.66,160.72l7.52-.1a3.75,3.75,0,0,0,3.7-3.8l-.09-7.51A3.76,3.76,0,0,0,93,145.6l-7.51.1a3.76,3.76,0,0,0-3.71,3.8l.1,7.51A3.75,3.75,0,0,0,85.66,160.72Z"/><path class="cls-2" d="M84.4,63.07l7.51-.1a3.77,3.77,0,0,0,3.71-3.81l-.1-7.51a3.77,3.77,0,0,0-3.81-3.71L84.2,48a3.77,3.77,0,0,0-3.71,3.81l.1,7.51A3.77,3.77,0,0,0,84.4,63.07Z"/><path class="cls-2" d="M189.37,46.68l-7.51.09a3.76,3.76,0,0,0-3.71,3.81l.1,7.51a3.76,3.76,0,0,0,3.8,3.71l7.51-.1a3.76,3.76,0,0,0,3.71-3.81l-.1-7.51A3.75,3.75,0,0,0,189.37,46.68Z"/><path class="cls-2" d="M183.32,159.45l7.51-.09a3.76,3.76,0,0,0,3.71-3.81l-.1-7.51a3.75,3.75,0,0,0-3.8-3.71l-7.51.1a3.75,3.75,0,0,0-3.71,3.8l.09,7.52A3.76,3.76,0,0,0,183.32,159.45Z"/><path class="cls-2" d="M134.15,133.8a3.76,3.76,0,0,0,7.51-.1l-.29-22.54a3.77,3.77,0,0,0-3.8-3.71L85,108.14a3.76,3.76,0,0,0,.1,7.51l48.83-.63Z"/><path class="cls-2" d="M107.42,100.33a3.76,3.76,0,1,0-.1-7.51l-37.56.49a3.76,3.76,0,1,0,.1,7.51Z"/><path class="cls-2" d="M137.47,99.94a3.76,3.76,0,1,0-.1-7.51l-15,.2a3.76,3.76,0,0,0,.09,7.51Z"/><path class="cls-2" d="M171.22,95.75a3.75,3.75,0,0,0-3.8-3.71l-11.27.15-.24-18.78a3.76,3.76,0,0,0-3.81-3.71L125.81,70l-.44-33.8a3.76,3.76,0,1,0-7.51.1l.49,37.55a3.75,3.75,0,0,0,3.8,3.71l26.29-.34L148.69,96a3.75,3.75,0,0,0,3.8,3.71l15-.2A3.75,3.75,0,0,0,171.22,95.75Z"/><path class="cls-2" d="M182.44,91.85a3.76,3.76,0,1,0,.1,7.51l22.54-.29a3.76,3.76,0,0,0-.1-7.52Z"/><path class="cls-2" d="M167.71,114.58l37.56-.49a3.76,3.76,0,1,0-.1-7.51l-37.56.48a3.76,3.76,0,0,0,.1,7.52Z"/><path class="cls-2" d="M141.86,148.72a3.77,3.77,0,0,0-3.81-3.71l-15,.2a3.77,3.77,0,0,0-3.71,3.8l.3,22.54a3.76,3.76,0,1,0,7.51-.1l-.25-18.78,11.27-.14A3.76,3.76,0,0,0,141.86,148.72Z"/><path class="cls-2" d="M138.44,175.06l15-.19a3.77,3.77,0,0,0,3.71-3.81L156.59,126a3.76,3.76,0,1,0-7.51.1l.53,41.31-11.26.15a3.76,3.76,0,1,0,.09,7.51Z"/><path class="cls-2" d="M133.18,58.68a3.75,3.75,0,0,0,3.8,3.7l15-.19a3.75,3.75,0,0,0,3.7-3.81l-.29-22.53a3.76,3.76,0,1,0-7.51.09l.24,18.78-11.27.15A3.75,3.75,0,0,0,133.18,58.68Z"/></svg>