<svg id="Capa_1" data-name="Capa 1" xmlns="http://www.w3.org/2000/svg" viewBox="0 0 426.79 500"><defs><style>.cls-1{fill:#22a5fd;}.cls-2{fill:#fff;}</style></defs><title>TWINBUSINESS ICONOS ACTIVOS </title><path class="cls-1" d="M234.84,280.64H106.11A105.22,105.22,0,0,0,1,385.74V477a21,21,0,0,0,21,21H318.93a21,21,0,0,0,21-21v-91.3A105.22,105.22,0,0,0,234.84,280.64Z"/><path class="cls-1" d="M170.48,1.94a126.38,126.38,0,1,0,126.4,126.4A126.54,126.54,0,0,0,170.48,1.94Z"/><circle class="cls-2" cx="312.68" cy="382.03" r="110"/><path class="cls-1" d="M311.53,269.54A114.26,114.26,0,1,0,425.79,383.8,114.39,114.39,0,0,0,311.53,269.54ZM372.9,444a85.17,85.17,0,1,1,25-60.23A84.57,84.57,0,0,1,372.9,444Z"/><path class="cls-1" d="M316,393.55V378.62h12.89V364.57H316.25v-12l-16.7,2.34v10h-9.66v14.05h9.44l.22,17.87s-.21,13.42,10.62,17.08c11.2,3.78,24.23-2.74,24.23-2.74l-7.61-15.52C316.83,401.46,316,393.55,316,393.55Z"/><path class="cls-1" d="M361.17,414.6l.32-.54q.54-.9,1.05-1.8a.83.83,0,0,0,.07-.13,58.41,58.41,0,1,0-51.08,30.09h0l1.6,0a58.13,58.13,0,0,0,22.35-5.1l1.9-.83A62.92,62.92,0,0,0,359,440a44.76,44.76,0,0,0,5.36-.27,4.49,4.49,0,0,0,2-8.11c-1.7-1.26-4.89-8.82-6.68-14.88l.12-.19C360.32,415.94,360.75,415.27,361.17,414.6Zm-5.05-9.45c-.43.88-.88,1.74-1.35,2.59-.09.17-.19.34-.29.51-.37.65-.75,1.29-1.15,1.91-.66,1-1.34,2.07-2.09,3.07a4.56,4.56,0,0,0-.74,3.8,88.86,88.86,0,0,0,5,13.92,52.31,52.31,0,0,1-16.59-3.74,4.52,4.52,0,0,0-3.74.13,57.77,57.77,0,0,1-20.77,5.8q-1.43.09-2.88.09a49.41,49.41,0,1,1,44.59-28.08Z"/></svg>