<svg id="Capa_1" data-name="Capa 1" xmlns="http://www.w3.org/2000/svg" viewBox="0 0 431.37 431.37"><defs><style>.cls-1{fill:#3395ff;}</style></defs><title>TWINBUSINESS ICONOS</title><path class="cls-1" d="M215.69,431.37C96.89,431.37,0,334.49,0,215.69S96.89,0,215.69,0,431.37,96.89,431.37,215.69,334.49,431.37,215.69,431.37Zm0-420.22C103,11.15,11.15,103,11.15,215.69S103,420.23,215.69,420.23s204.54-91.89,204.54-204.54S328.34,11.15,215.69,11.15Z"/><path class="cls-1" d="M273.74,223.76H236.45V361.4h-56.9V223.76H152.63V175.7h26.92V144.56c0-22.3,10.76-57.29,57.28-57.29h41.91v46.91H248.37c-5,0-11.92,2.69-11.92,13.07V175.7h42.29Z"/></svg>