<svg id="Capa_1" data-name="Capa 1" xmlns="http://www.w3.org/2000/svg" viewBox="0 0 735.8 609.54"><defs><style>.cls-1{fill:#175791;}.cls-2{fill:#3393fd;}</style></defs><title>TWINCAHT_Iconos</title><path class="cls-1" d="M288.49,411.63a56.24,56.24,0,0,0,6,103.73v25.82a57.37,57.37,0,0,0,57.27,57.33h76.79a57.4,57.4,0,0,0,57.33-57.33V515.36a56.24,56.24,0,0,0,6-103.73c7.59-28.2,23-49.2,39.16-71.22,24.9-33.88,53.11-72.28,53.05-139.92,0-6-.25-12.24-.74-18.42a17.33,17.33,0,1,0-34.56,2.75c.42,5.27.64,10.54.64,15.68,0,56.28-22.48,86.93-46.32,119.38-18.1,24.63-36.72,50-45.59,86.09H322.85c-8.87-36.07-27.5-61.46-45.6-86.08-23.85-32.45-46.38-63.11-46.31-119.38.08-60,25.79-97.9,47.34-119.12A157.06,157.06,0,0,1,389.94,36.32h.5a157,157,0,0,1,95,30.85A17.33,17.33,0,1,0,506.08,39.3,196.62,196.62,0,0,0,254,56.69c-37.66,37.09-57.61,86.81-57.68,143.78-.09,67.67,28.14,106.07,53,140,16.19,22,31.58,43,39.17,71.2ZM451.23,541.18a22.69,22.69,0,0,1-22.66,22.66h-76.8a22.67,22.67,0,0,1-22.61-22.66V518.52H451.23ZM313.06,440.64H467.33a21.61,21.61,0,1,1,0,43.21H313.06a21.61,21.61,0,1,1,0-43.21Z"/><path class="cls-1" d="M715.52,205H645.11a17.33,17.33,0,0,0,0,34.66h70.41a17.33,17.33,0,1,0,0-34.66Z"/><path class="cls-1" d="M614.1,92.42a17.25,17.25,0,0,0,9.64-2.94l58.42-39.21a17.34,17.34,0,0,0-19.32-28.79L604.42,60.69a17.34,17.34,0,0,0,9.68,31.73Z"/><path class="cls-1" d="M685.31,393,626.9,353.8a17.33,17.33,0,1,0-19.32,28.78L666,421.79A17.34,17.34,0,0,0,685.31,393Z"/><path class="cls-1" d="M24,240.65H94.33a17.33,17.33,0,0,0,0-34.66H24a17.33,17.33,0,0,0,0,34.66Z"/><path class="cls-1" d="M54.83,50.78,113.25,90A17.34,17.34,0,0,0,132.57,61.2L74.15,22A17.34,17.34,0,0,0,54.83,50.78Z"/><path class="cls-1" d="M110.16,351.49,51.74,390.7a17.33,17.33,0,0,0,19.32,28.78l58.42-39.21a17.33,17.33,0,1,0-19.32-28.78Z"/><path class="cls-2" d="M713.62,209.74h-70.4a17.34,17.34,0,1,0,0,34.67h70.4a17.34,17.34,0,0,0,0-34.67Z"/><path class="cls-2" d="M614.1,98.09a17.25,17.25,0,0,0,9.64-2.94l58.42-39.21a17.33,17.33,0,0,0-19.32-28.78l-58.42,39.2a17.34,17.34,0,0,0,9.68,31.73Z"/><path class="cls-2" d="M682.16,398.21,623.74,359a17.33,17.33,0,1,0-19.32,28.78L662.84,427a17.33,17.33,0,0,0,19.32-28.78Z"/><path class="cls-2" d="M20.28,244.41H90.63a17.34,17.34,0,1,0,0-34.67H20.28a17.34,17.34,0,1,0,0,34.67Z"/><path class="cls-2" d="M51.74,55.94l58.42,39.21a17.33,17.33,0,1,0,19.32-28.78L71.06,27.16A17.33,17.33,0,1,0,51.74,55.94Z"/><path class="cls-2" d="M110.16,359,51.74,398.21A17.33,17.33,0,1,0,71.06,427l58.42-39.21A17.33,17.33,0,1,0,110.16,359Z"/><path class="cls-1" d="M582.88,179.22s-2.81-18.47-29.14-11.93-27.86,22-27.86,22"/><path class="cls-1" d="M507.66,40.63s17.9,17.56-9.83,34.61c0,0-24.64,9.38-34.89,1.32"/><path class="cls-2" d="M265.25,421a56.24,56.24,0,0,0,6,103.73v25.81a57.37,57.37,0,0,0,57.28,57.33h76.79a57.4,57.4,0,0,0,57.33-57.33V524.75a56.25,56.25,0,0,0,6-103.74c7.59-28.19,23-49.19,39.16-71.21,24.89-33.88,53.11-72.28,53.05-139.92,0-6-.25-12.24-.74-18.43a17.33,17.33,0,0,0-34.56,2.75c.42,5.28.63,10.55.63,15.69,0,56.27-22.47,86.93-46.32,119.38-18.09,24.62-36.71,50-45.59,86.09H299.61c-8.88-36.08-27.5-61.46-45.6-86.08-23.85-32.46-46.38-63.11-46.31-119.38.08-60,25.78-97.9,47.34-119.12A157,157,0,0,1,366.7,45.71h.5a157,157,0,0,1,95,30.85,17.33,17.33,0,1,0,20.6-27.88,196.63,196.63,0,0,0-252.11,17.4c-37.66,37.09-57.61,86.8-57.68,143.78-.09,67.66,28.14,106.07,53,140,16.18,22,31.58,43,39.17,71.21ZM428,550.57a22.69,22.69,0,0,1-22.66,22.66H328.53a22.66,22.66,0,0,1-22.61-22.66V527.91H428ZM289.81,450H444.09a21.61,21.61,0,1,1,0,43.21H289.81a21.61,21.61,0,1,1,0-43.21Z"/></svg>