<svg id="Capa_1" data-name="Capa 1" xmlns="http://www.w3.org/2000/svg" viewBox="0 0 735.8 609.54"><defs><style>.cls-1{fill:#3393fd;}</style></defs><title>TWINCAHT_Iconos</title><path class="cls-1" d="M268.05,414.28A55.22,55.22,0,0,0,274,516.12v25.34a56.32,56.32,0,0,0,56.23,56.28h75.39a56.34,56.34,0,0,0,56.28-56.28V516.12a55.22,55.22,0,0,0,5.89-101.84c7.45-27.68,22.56-48.29,38.45-69.91,24.44-33.27,52.14-71,52.08-137.37,0-5.93-.25-12-.73-18.09a17,17,0,0,0-33.93,2.7c.41,5.18.62,10.36.62,15.41,0,55.24-22.06,85.33-45.47,117.19C461,348.39,442.71,373.31,434,408.73H301.79c-8.71-35.42-27-60.34-44.77-84.51-23.41-31.86-45.53-62-45.46-117.2.08-58.91,25.31-96.11,46.47-116.94A154.19,154.19,0,0,1,367.66,45.83a3.84,3.84,0,0,0,.48,0,154.13,154.13,0,0,1,93.29,30.29,17,17,0,0,0,20.24-27.36A193,193,0,0,0,234.16,65.83c-37,36.41-56.56,85.22-56.63,141.15-.09,66.43,27.63,104.14,52.07,137.4,15.89,21.62,31,42.23,38.45,69.9ZM427.82,541.47a22.27,22.27,0,0,1-22.25,22.24H330.18A22.24,22.24,0,0,1,308,541.47V519.22H427.82Zm-135.65-98.7H443.63a21.21,21.21,0,1,1,0,42.41H292.17a21.21,21.21,0,1,1,0-42.41Z"/><path class="cls-1" d="M405.57,608.29H330.19a66.88,66.88,0,0,1-66.78-66.83V523.13a65.74,65.74,0,0,1-7.89-113.77c-7.54-22.16-20.63-40-34.41-58.74C195.69,316,166.9,276.86,167,207c.08-58.81,20.76-110.21,59.79-148.66C264.26,21.42,316,1,368,1.26h2.45a199.2,199.2,0,0,1,117.47,39,27.57,27.57,0,1,1-32.79,44.32c-25.23-18.66-55.86-28.84-86.84-28.21-39-.29-75.75,14.5-102.88,41.2C245.7,117,222.18,151.75,222.12,207,222,258.8,242.18,286.22,265.51,318c17,23.15,34.54,47,44.35,80.21H425.92c9.82-33.22,27.35-57.07,44.32-80.2,23.36-31.76,43.5-59.18,43.44-111,0-4.78-.18-9.67-.57-14.57a27.52,27.52,0,0,1,25.29-29.66c14.79-1,28.44,10.16,29.64,25.29.51,6.34.78,12.71.78,18.92,0,69.92-30,110.77-54.13,143.61-13.8,18.77-26.88,36.59-34.42,58.74a65.74,65.74,0,0,1-7.88,113.78v18.33A66.9,66.9,0,0,1,405.57,608.29ZM365.92,22.34a178.18,178.18,0,0,0-124.36,51C206.65,107.74,188.15,154,188.07,207c-.08,62.94,25.39,97.6,50,131.11,15.82,21.54,32.17,43.8,40.12,73.44l2.27,8.4-7.83,3.82a44.66,44.66,0,0,0,4.78,82.39l7.06,2.47v32.83a45.77,45.77,0,0,0,45.69,45.74h75.38a45.78,45.78,0,0,0,45.72-45.74V508.63l7.07-2.47a44.68,44.68,0,0,0,4.78-82.41l-7.83-3.81,2.27-8.4c7.95-29.62,24.3-51.89,40.1-73.42C521.16,306.18,547.77,270,547.73,207c0-5.66-.23-11.46-.7-17.24a6.84,6.84,0,0,0-7-6,6.4,6.4,0,0,0-4.39,2.24,6.5,6.5,0,0,0-1.55,4.72c.44,5.46.66,10.91.66,16.23.07,58.7-24.12,91.62-47.51,123.44-17.12,23.3-34.81,47.38-43,80.8l-2,8H293.52l-2-8c-8.22-33.39-25.91-57.49-43-80.79C225.12,298.63,200.94,265.71,201,207c.07-62.57,27-102.21,49.62-124.44C281.74,51.91,324,34.48,367.8,35.29l2.39,0a164.82,164.82,0,0,1,97.5,32.37,6.34,6.34,0,0,0,4.82,1.2,6.48,6.48,0,0,0,2.9-11.6,178.09,178.09,0,0,0-105.16-34.9C368.81,22.35,367.36,22.35,365.92,22.34Zm39.65,551.92H330.19a32.8,32.8,0,0,1-32.75-32.8V508.67H438.36v32.79A32.83,32.83,0,0,1,405.57,574.26Zm-87-44.5v11.7a11.7,11.7,0,0,0,11.66,11.71h75.38a11.72,11.72,0,0,0,11.7-11.71v-11.7Zm125.1-34H292.16a31.76,31.76,0,1,1,0-63.51H443.63a31.76,31.76,0,1,1,0,63.51ZM292.16,453.31a10.67,10.67,0,0,0,0,21.33H443.63a10.67,10.67,0,1,0,0-21.33Z"/><path class="cls-1" d="M708.24,206.87H639.12a17,17,0,1,0,0,34h69.12a17,17,0,0,0,0-34Z"/><path class="cls-1" d="M708.24,251.45H639.12a27.57,27.57,0,0,1,0-55.13h69.12a27.57,27.57,0,0,1,0,55.13Zm-69.12-34a6.48,6.48,0,0,0,0,13h69.12a6.48,6.48,0,0,0,0-13Z"/><path class="cls-1" d="M610.53,97.26A17,17,0,0,0,620,94.37l57.35-38.49a17,17,0,0,0-19-28.26L601,66.11a17,17,0,0,0,9.5,31.15Z"/><path class="cls-1" d="M610.53,107.81a27.56,27.56,0,0,1-15.37-50.45L652.5,18.87a27.56,27.56,0,1,1,30.71,45.77l-57.34,38.48A27.44,27.44,0,0,1,610.53,107.81Zm57.32-72.52a6.52,6.52,0,0,0-3.61,1.09L606.9,74.86a6.49,6.49,0,0,0-1.77,9,6.6,6.6,0,0,0,9,1.76l57.34-38.47a6.46,6.46,0,0,0-3.62-11.84Z"/><path class="cls-1" d="M677.35,391.89,620,353.4a17,17,0,0,0-19,28.26l57.35,38.49a17,17,0,0,0,19-28.26Z"/><path class="cls-1" d="M667.85,433.59a27.56,27.56,0,0,1-15.35-4.68l-57.34-38.49a27.56,27.56,0,1,1,30.71-45.77l57.34,38.48a27.57,27.57,0,0,1-15.36,50.46Zm-57.32-72.53a6.48,6.48,0,0,0-3.63,11.85l57.34,38.48a6.65,6.65,0,0,0,9-1.78,6.49,6.49,0,0,0-1.78-9l-57.34-38.48A6.5,6.5,0,0,0,610.53,361.06Z"/><path class="cls-1" d="M27.56,240.9H96.63a17,17,0,1,0,0-34H27.56a17,17,0,0,0,0,34Z"/><path class="cls-1" d="M96.64,251.45H27.56a27.57,27.57,0,0,1,0-55.13H96.64a27.57,27.57,0,0,1,0,55.13Zm-69.08-34a6.48,6.48,0,0,0,0,13H96.64a6.48,6.48,0,0,0,0-13Z"/><path class="cls-1" d="M58.45,55.88,115.8,94.37a17,17,0,0,0,19-28.26L77.42,27.62a17,17,0,0,0-19,28.26Z"/><path class="cls-1" d="M125.27,107.81a27.56,27.56,0,0,1-15.35-4.68L52.58,64.64A27.56,27.56,0,0,1,83.29,18.87l57.34,38.49a27.56,27.56,0,0,1-15.36,50.45ZM64.32,47.13l57.34,38.48a6.63,6.63,0,0,0,9-1.78,6.49,6.49,0,0,0-1.78-9L71.55,36.38a6.48,6.48,0,0,0-7.23,10.75Z"/><path class="cls-1" d="M115.8,353.4,58.45,391.89a17,17,0,1,0,19,28.26l57.35-38.49a17,17,0,0,0-19-28.26Z"/><path class="cls-1" d="M68,433.59a27.57,27.57,0,0,1-15.37-50.46l57.34-38.48a27.56,27.56,0,1,1,30.71,45.77L83.29,428.9A27.32,27.32,0,0,1,68,433.59Zm57.32-72.53a6.53,6.53,0,0,0-3.61,1.1L64.32,400.64a6.49,6.49,0,0,0-1.77,9,6.67,6.67,0,0,0,9,1.78l57.36-38.49a6.47,6.47,0,0,0-3.62-11.85Z"/></svg>