<svg id="Capa_1" data-name="Capa 1" xmlns="http://www.w3.org/2000/svg" viewBox="0 0 735.8 609.54"><defs><style>.cls-1{fill:#99a0af;}</style></defs><title>TWINCAHT_Iconos</title><path class="cls-1" d="M268.94,413.32a54.72,54.72,0,0,0,5.85,100.93v25.12a55.82,55.82,0,0,0,55.73,55.79h74.72A55.86,55.86,0,0,0,461,539.37V514.25a54.73,54.73,0,0,0,5.84-100.93c7.38-27.44,22.36-47.87,38.1-69.3,24.23-33,51.68-70.34,51.62-136.15,0-5.88-.24-11.91-.72-17.93a16.87,16.87,0,1,0-33.63,2.67c.41,5.14.62,10.27.62,15.27,0,54.76-21.87,84.58-45.07,116.16-17.61,24-35.73,48.66-44.36,83.77h-131c-8.63-35.1-26.76-59.8-44.37-83.76C234.8,292.47,212.88,262.64,213,207.89,213,149.5,238,112.63,259,92A152.83,152.83,0,0,1,367.67,48.12h.48a152.87,152.87,0,0,1,92.47,30A16.86,16.86,0,0,0,480.67,51,191.32,191.32,0,0,0,235.35,68c-36.65,36.08-56.06,84.46-56.13,139.9-.09,65.84,27.38,103.21,51.61,136.18,15.75,21.43,30.73,41.85,38.11,69.29ZM427.29,539.38a22.08,22.08,0,0,1-22,22H330.52a22.06,22.06,0,0,1-22-22v-22H427.29ZM292.85,441.55H443a21,21,0,1,1,0,42H292.85a21,21,0,1,1,0-42Z"/><path class="cls-1" d="M405.24,605.61H330.52a66.29,66.29,0,0,1-66.19-66.24V521.2a65.16,65.16,0,0,1-7.79-112.76c-7.5-22-20.48-39.62-34.14-58.22-25.19-34.29-53.73-73.13-53.63-142.39.06-58.28,20.56-109.22,59.25-147.34C265.17,23.93,316.51,3.64,368,3.94c41.69-.5,84.4,13.19,118.86,38.68a27.31,27.31,0,0,1-12.21,49,27,27,0,0,1-20.27-5.07c-25-18.48-56.1-28.58-86.09-28a141,141,0,0,0-102,40.85c-19.54,19.25-42.86,53.69-42.94,108.48-.08,51.31,19.89,78.48,43,110,16.86,22.93,34.23,46.57,44,79.51h115c9.74-33,27.11-56.61,43.95-79.51,23.13-31.5,43.08-58.66,43-110,0-4.74-.2-9.59-.59-14.45a27.32,27.32,0,0,1,54.47-4.34c.49,6.31.75,12.62.75,18.77.07,69.26-28.47,108.08-53.65,142.34-13.65,18.58-26.62,36.23-34.11,58.23a65.15,65.15,0,0,1-7.8,112.76v18.17A66.32,66.32,0,0,1,405.24,605.61ZM365.94,24.84A176.62,176.62,0,0,0,242.67,75.4c-34.6,34.09-52.93,79.89-53,132.46-.1,62.39,25.15,96.74,49.57,130,15.67,21.35,31.88,43.41,39.78,72.79a10.43,10.43,0,0,1-5.51,12.11,44.27,44.27,0,0,0,4.72,81.66,10.48,10.48,0,0,1,7,9.87v25.12a45.35,45.35,0,0,0,45.28,45.33h74.72a45.38,45.38,0,0,0,45.34-45.33V514.25a10.48,10.48,0,0,1,7-9.87,44.29,44.29,0,0,0,4.72-81.68,10.42,10.42,0,0,1-5.52-12.1c7.93-29.41,24.09-51.45,39.75-72.77,23.3-31.67,49.67-67.55,49.61-129.95,0-5.63-.22-11.38-.67-17.12a6.68,6.68,0,0,0-6.94-5.87,6.43,6.43,0,0,0-5.88,6.9c.42,5.41.67,10.81.67,16.09,0,58.15-23.91,90.76-47.06,122.3-17,23.1-34.52,46.92-42.68,80.13a10.45,10.45,0,0,1-10.15,7.95h-131a10.45,10.45,0,0,1-10.15-7.95c-8.14-33.13-25.7-57-42.67-80.07-23.19-31.56-47.15-64.18-47.07-122.37.08-62,26.78-101.3,49.18-123.35A162.8,162.8,0,0,1,367.82,37.67l2.37,0a163.58,163.58,0,0,1,96.64,32.08,6.13,6.13,0,0,0,4.76,1.19,6.33,6.33,0,0,0,4.2-2.52,6.42,6.42,0,0,0-1.33-9A176.42,176.42,0,0,0,370.23,24.84Q368.05,24.86,365.94,24.84Zm39.3,547H330.52a32.52,32.52,0,0,1-32.46-32.51v-22a10.45,10.45,0,0,1,10.45-10.45H427.29a10.45,10.45,0,0,1,10.45,10.45v22A32.54,32.54,0,0,1,405.24,571.88ZM319,527.78v11.59A11.6,11.6,0,0,0,330.52,551h74.72a11.61,11.61,0,0,0,11.59-11.61V527.78ZM443,494H292.85a31.48,31.48,0,1,1,0-63H443a31.48,31.48,0,1,1,0,63ZM292.85,452a10.57,10.57,0,1,0,0,21.14H443A10.57,10.57,0,1,0,443,452Z"/><path class="cls-1" d="M705.24,207.74H636.73a16.87,16.87,0,1,0,0,33.73h68.51a16.87,16.87,0,0,0,0-33.73Z"/><path class="cls-1" d="M705.23,251.92H636.72a27.32,27.32,0,0,1,0-54.64h68.51a27.32,27.32,0,1,1,0,54.64Zm-68.51-33.73a6.42,6.42,0,0,0,0,12.83h68.51a6.42,6.42,0,0,0,0-12.83Z"/><path class="cls-1" d="M608.39,99.09a16.77,16.77,0,0,0,9.39-2.86l56.84-38.15a16.87,16.87,0,0,0-18.8-28L599,68.22a16.86,16.86,0,0,0,9.41,30.87Z"/><path class="cls-1" d="M608.38,109.55a27.32,27.32,0,0,1-15.22-50L650,21.4a26.77,26.77,0,0,1,20.5-4.13,27.33,27.33,0,0,1,10,49.48l-56.88,38.16A27.09,27.09,0,0,1,608.38,109.55Zm56.84-71.89a6.46,6.46,0,0,0-3.57,1.09L604.79,76.9a6.4,6.4,0,0,0-1.73,8.89,6.55,6.55,0,0,0,8.88,1.77l56.87-38.15a6.42,6.42,0,0,0-3.59-11.75Z"/><path class="cls-1" d="M674.62,391.12,617.78,353A16.87,16.87,0,0,0,599,381l56.84,38.15a16.87,16.87,0,1,0,18.8-28Z"/><path class="cls-1" d="M665.2,432.45A27.08,27.08,0,0,1,650,427.79l-56.83-38.13a27.32,27.32,0,0,1,9.94-49.49,27,27,0,0,1,20.49,4.13l56.86,38.14h0a27.33,27.33,0,0,1-15.27,50Zm-56.82-71.89a6.59,6.59,0,0,0-1.24.12,6.43,6.43,0,0,0-2.33,11.64l56.84,38.13a6.55,6.55,0,0,0,8.9-1.74,6.46,6.46,0,0,0-1.74-8.91L612,361.65A6.49,6.49,0,0,0,608.38,360.56Z"/><path class="cls-1" d="M30.58,241.47H99a16.87,16.87,0,0,0,0-33.73H30.58a16.87,16.87,0,1,0,0,33.73Z"/><path class="cls-1" d="M99,251.92H30.59a27.32,27.32,0,1,1,0-54.64H99a27.32,27.32,0,0,1,0,54.64ZM30.59,218.19a6.42,6.42,0,1,0,0,12.83H99a6.42,6.42,0,0,0,0-12.83Z"/><path class="cls-1" d="M61.19,58.08,118,96.23a16.87,16.87,0,0,0,18.8-28L80,30.07a16.87,16.87,0,0,0-18.8,28Z"/><path class="cls-1" d="M127.41,109.55a27.1,27.1,0,0,1-15.21-4.66L55.37,66.76h0A27.31,27.31,0,1,1,85.81,21.4l56.85,38.14a27.33,27.33,0,0,1-15.25,50ZM67,49.41l56.85,38.14a6.56,6.56,0,0,0,8.9-1.74A6.45,6.45,0,0,0,131,76.89L74.17,38.75a6.41,6.41,0,0,0-8.9,1.75A6.41,6.41,0,0,0,67,49.41Z"/><path class="cls-1" d="M118,353,61.19,391.12a16.87,16.87,0,1,0,18.8,28L136.84,381A16.87,16.87,0,0,0,118,353Z"/><path class="cls-1" d="M70.62,432.45a27.33,27.33,0,0,1-15.25-50l56.85-38.14a26.82,26.82,0,0,1,20.5-4.13,27.33,27.33,0,0,1,10,49.48L85.81,427.8A27,27,0,0,1,70.62,432.45Zm56.81-71.89a6.48,6.48,0,0,0-3.57,1.09h0L67,399.8a6.42,6.42,0,0,0-1.74,8.9,6.55,6.55,0,0,0,8.88,1.76L131,372.31a6.43,6.43,0,0,0-2.35-11.63A6.62,6.62,0,0,0,127.43,360.56ZM118,353h0Z"/></svg>