<svg id="Capa_1" data-name="Capa 1" xmlns="http://www.w3.org/2000/svg" viewBox="0 0 224.84 490.95"><defs><style>.cls-1{fill:#27a2fb;}</style></defs><title>TWINBUSINESS ICONOS debra</title><path class="cls-1" d="M51.48,74.74q8.34,8.34,16.35,15t10.08,6.6q4.19,0,14.26-5.57T113,77.84a237.53,237.53,0,0,0,19.13-14.26q8.34-6.94,8.34-10.44,0-2.76-6.26-11.12T119.63,24.64a213,213,0,0,0-16.36-16Q95.26,1.71,91.79,1c-1.38.47-5.45,2.68-12.16,6.61A231.89,231.89,0,0,0,58.77,21.53Q48,29.54,39,36.83t-9,10.79c0,1.86,2.2,5.46,6.61,10.77S45.92,69.17,51.48,74.74Z"/><path class="cls-1" d="M220.6,419.65q-1.4,1.41-8,4.18t-15.29,5.56a141.21,141.21,0,0,1-18.44,4.54,101,101,0,0,1-17.38,1.74q-15.3,0-23.65-5.91a36.15,36.15,0,0,1-12.53-15.64q-4.17-9.74-4.87-23.3t-.7-28.17l0-33.38q0-34.08,2.07-63.29t4.5-51.47q2.43-22.26,4.51-37.56t2.08-22.26v-2.78a18.88,18.88,0,0,0-2.79-10.08q-2.77-4.52-10.43-4.52t-25.73,7.31q-18.09,7.31-37.55,17L23,178.38Q7.7,186,2.83,189.51q-3.48,2.09-.34,6.26c2.08,2.78,3.58,4.17,4.52,4.17a18.11,18.11,0,0,0,6.26-1.74,21.69,21.69,0,0,1,8.34-1.74,24.66,24.66,0,0,1,12.87,3.12,29,29,0,0,1,8.7,8q4.86,7.65,7,21.56a217.87,217.87,0,0,1,2.1,32v24.34q0,16.69-1.38,40t-3.12,46.26Q46,394.66,44.29,413.1t-2.43,25.39c-.46,3.72-.81,6.72-1,9s-.34,5.11-.34,8.35q0,14.6,9.05,24.34t25,9.73q13.91,0,35.12-6.62A418.46,418.46,0,0,0,153.15,467q23.64-9.73,41-18.78t24.34-12.53a10.3,10.3,0,0,0,3.48-4.53,21.48,21.48,0,0,0,1.73-6.26,12.41,12.41,0,0,0-.35-5.21Q222.69,417.57,220.6,419.65Z"/></svg>