<svg id="Capa_1" data-name="Capa 1" xmlns="http://www.w3.org/2000/svg" viewBox="0 0 431.37 431.31"><defs><style>.cls-1{fill:#3395ff;}</style></defs><title>TWINBUSINESS ICONOS</title><path class="cls-1" d="M215.66,0C96.56,0,0,96.56,0,215.66S96.56,431.31,215.66,431.31s215.65-96.55,215.65-215.65S334.7.13,215.66,0Zm0,416.94c-111.16,0-201.28-90.12-201.28-201.28S104.5,14.38,215.66,14.38,416.94,104.5,416.94,215.66,326.77,416.81,215.66,416.94Z"/><path class="cls-1" d="M215.66,158.15a57.51,57.51,0,1,0,57.51,57.51A57.5,57.5,0,0,0,215.66,158.15Z"/><path class="cls-1" d="M294.73,129.39a7.19,7.19,0,1,0,7.19,7.19A7.19,7.19,0,0,0,294.73,129.39Z"/><path class="cls-1" d="M309.11,86.26H122.21a36,36,0,0,0-35.95,35.95v186.9a36,36,0,0,0,35.95,35.94h186.9a36,36,0,0,0,35.94-35.94V122.21A36,36,0,0,0,309.11,86.26ZM215.66,287.54a71.89,71.89,0,1,1,71.88-71.88A71.88,71.88,0,0,1,215.66,287.54Zm79.07-129.39a21.57,21.57,0,1,1,21.57-21.57A21.57,21.57,0,0,1,294.73,158.15Z"/></svg>