<svg id="Capa_1" data-name="Capa 1" xmlns="http://www.w3.org/2000/svg" viewBox="0 0 283.46 283.46"><defs><style>.cls-1{fill:#22a5fd;}</style></defs><title>TWINBUSINESS ICONOS ACTIVOS </title><path class="cls-1" d="M188.64,1A93.93,93.93,0,0,0,94.82,94.82a92.77,92.77,0,0,0,2,18.84L86.33,118.9a5.87,5.87,0,0,0-1.52,9.39l7.58,7.58-5.86,5.86h-9.3a5.86,5.86,0,0,0-5.86,5.87v9.3l-8.3,8.29h-9.3a5.86,5.86,0,0,0-5.86,5.86v9.3l-8.29,8.29h-9.3a5.86,5.86,0,0,0-5.86,5.87v9.3L2.72,225.54A5.87,5.87,0,0,0,1,229.69V276.6a5.86,5.86,0,0,0,5.86,5.86H53.77a5.86,5.86,0,0,0,4.15-1.71l89.68-89.68,7.58,7.58a5.81,5.81,0,0,0,5.08,1.65,5.91,5.91,0,0,0,4.31-3.17l5.24-10.48c59.66,12.44,112.65-33.93,112.65-91.83A93.92,93.92,0,0,0,188.64,1ZM168.09,174.21a5.89,5.89,0,0,0-6.7,3.06l-3.68,7.34-6-6a5.86,5.86,0,0,0-8.29,0l-92.1,92.11H12.73V232.12l21.74-21.74a5.9,5.9,0,0,0,1.71-4.15v-5.86h5.87a5.86,5.86,0,0,0,4.14-1.72l11.73-11.73a5.83,5.83,0,0,0,1.72-4.14v-5.86H65.5a5.87,5.87,0,0,0,4.15-1.72l11.73-11.73a5.86,5.86,0,0,0,1.71-4.15v-5.86H89a5.84,5.84,0,0,0,4.14-1.72L104.83,140a5.86,5.86,0,0,0,0-8.29l-6-6,7.33-3.67a5.86,5.86,0,0,0,3.06-6.71A82.06,82.06,0,1,1,270.74,94.82C270.74,146.77,222.26,188.16,168.09,174.21Z"/><path class="cls-1" d="M218,36.18A29.32,29.32,0,1,0,247.28,65.5,29.36,29.36,0,0,0,218,36.18Zm0,46.91A17.59,17.59,0,1,1,235.55,65.5,17.61,17.61,0,0,1,218,83.09Z"/><path class="cls-1" d="M120,155.18,37.9,237.27a5.86,5.86,0,1,0,8.29,8.29l82.1-82.09a5.87,5.87,0,1,0-8.3-8.29Z"/></svg>