<svg id="Capa_1" data-name="Capa 1" xmlns="http://www.w3.org/2000/svg" viewBox="0 0 431.37 431.31"><defs><style>.cls-1{fill:#3395ff;}</style></defs><title>TWINBUSINESS ICONOS</title><path class="cls-1" d="M215.69-.06C96.57-.06,0,96.51,0,215.62S96.57,431.31,215.69,431.31s215.68-96.57,215.68-215.69S334.75.07,215.69-.06Zm0,417c-111.18,0-201.31-90.13-201.31-201.31s90.13-201.3,201.31-201.3S417,104.45,417,215.62,326.81,416.81,215.69,416.93Z"/><path class="cls-1" d="M342.86,321.6h.06V232.37c0-43.65-9.4-77.27-60.42-77.27-24.53,0-41,13.46-47.71,26.22h-.71V159.18H185.7V321.59h50.37V241.17c0-21.18,4-41.65,30.24-41.65,25.84,0,26.22,24.16,26.22,43V321.6Z"/><path class="cls-1" d="M103.67,159.19H154.1V321.6H103.67Z"/><path class="cls-1" d="M128.87,78.33a29.35,29.35,0,1,0,29.21,29.21A29.23,29.23,0,0,0,128.87,78.33Z"/></svg>