<svg id="Capa_1" data-name="Capa 1" xmlns="http://www.w3.org/2000/svg" viewBox="0 0 607.98 609.54"><defs><style>.cls-1{fill:#22a5fd;}</style></defs><title>TWINCAHT_Iconos</title><path class="cls-1" d="M305,61.42H524a24.34,24.34,0,0,1,24.33,24.33v438A24.34,24.34,0,0,1,524,548.12H305a24.34,24.34,0,0,0,0,48.67H524a73.09,73.09,0,0,0,73-73v-438a73.09,73.09,0,0,0-73-73H305a24.34,24.34,0,0,0,0,48.67Z"/><path class="cls-1" d="M524,605.65H305a33.2,33.2,0,1,1,0-66.4H524a15.48,15.48,0,0,0,15.46-15.47v-438A15.48,15.48,0,0,0,524,70.29H305a33.21,33.21,0,0,1,0-66.41H524a82,82,0,0,1,81.87,81.87v438A82,82,0,0,1,524,605.65ZM305,557a15.47,15.47,0,0,0,0,30.93H524a64.21,64.21,0,0,0,64.13-64.14v-438A64.2,64.2,0,0,0,524,21.62H305a15.47,15.47,0,0,0,0,30.93H524a33.23,33.23,0,0,1,33.2,33.2v438A33.24,33.24,0,0,1,524,557Z"/><path class="cls-1" d="M18.25,322.09l148,146a24.33,24.33,0,1,0,34.16-34.65L94.64,329.1H378a24.34,24.34,0,0,0,0-48.67H94.64L200.37,176.09a24.33,24.33,0,1,0-34.16-34.66l-148,146a24.33,24.33,0,0,0,0,34.65Z"/><path class="cls-1" d="M183.26,484A32.91,32.91,0,0,1,160,474.41L12,328.4a33,33,0,0,1-9.88-23.63A33.46,33.46,0,0,1,12,281.14l148-146c12.53-12.4,34.4-12.33,46.94.31a33.21,33.21,0,0,1-.33,47l-90.34,89.15H378A33.21,33.21,0,0,1,378,338H116.25l90.35,89.16A33.2,33.2,0,0,1,183.46,484ZM24.49,315.79l147.94,146a15.06,15.06,0,0,0,10.93,4.45,15.46,15.46,0,0,0,10.79-26.47L73,320.24H378a15.47,15.47,0,0,0,0-30.94H73L194.14,169.77a15.46,15.46,0,0,0,.16-21.87,15.84,15.84,0,0,0-21.85-.16l-148,146a15.58,15.58,0,0,0-4.61,11,15.4,15.4,0,0,0,4.62,11Z"/></svg>