<svg id="Capa_1" data-name="Capa 1" xmlns="http://www.w3.org/2000/svg" viewBox="0 0 602.58 597.39"><defs><style>.cls-1{fill:#175791;}.cls-2{fill:#22a5fd;}</style></defs><title>TWINCAHT_Iconos</title><path class="cls-1" d="M309,51.35H527.35a24.27,24.27,0,0,1,24.26,24.26V512.33a24.27,24.27,0,0,1-24.26,24.26H309a24.27,24.27,0,0,0,0,48.53H527.35a72.87,72.87,0,0,0,72.78-72.79V75.61A72.86,72.86,0,0,0,527.35,2.83H309a24.26,24.26,0,1,0,0,48.52Z"/><path class="cls-1" d="M20.46,311.25,168,456.82A24.26,24.26,0,1,0,202,422.27l-105.42-104H379.1a24.26,24.26,0,0,0,0-48.52H96.62L202,165.67A24.26,24.26,0,1,0,168,131.13L20.46,276.7a24.25,24.25,0,0,0,0,34.55Z"/><path class="cls-2" d="M295.53,60.79H513.89a24.27,24.27,0,0,1,24.27,24.26V521.77A24.28,24.28,0,0,1,513.89,546H295.53a24.26,24.26,0,0,0,0,48.52H513.89a72.88,72.88,0,0,0,72.79-72.79V85.06a72.88,72.88,0,0,0-72.79-72.79H295.53a24.26,24.26,0,1,0,0,48.52Z"/><path class="cls-2" d="M9.68,320.69,157.19,466.26a24.26,24.26,0,1,0,34.06-34.55l-105.41-104H368.32a24.27,24.27,0,0,0,0-48.53H85.84l105.41-104a24.26,24.26,0,1,0-34.06-34.55L9.68,286.14a24.25,24.25,0,0,0,0,34.55Z"/></svg>