<svg id="Capa_1" data-name="Capa 1" xmlns="http://www.w3.org/2000/svg" viewBox="0 0 259.55 259.54"><defs><style>.cls-1{fill:#005ca3;}.cls-2{fill:#fff;}</style></defs><title>TWINBUSINESS ICONOS</title><path class="cls-1" d="M129.56,259.56C57.33,258.68-.35,201.85,0,128.93.38,57.46,57-.1,129.87,0c72.45.08,129.64,57.34,129.56,129.88S201.65,258.85,129.56,259.56ZM72,209.65a14.65,14.65,0,0,0,2.93.78q53.29.07,106.58.1c4.17,0,6.47-2.23,7.56-6,1.51-5.26,3-10.52,4.53-15.77,2.36-8.07,1.46-9.33-6.89-9.34H119c2.76-9.4,6.34-18.2,7.81-27.34,2.15-13.28,8.24-21.43,22.2-22.72,1.64-.16,4-1.57,4.54-3,1.67-4.23,2.62-8.74,4.1-14l-20.2,5.81c.41-1.65.57-2.4.78-3.14,6.64-22.66,13.33-45.31,19.92-68,1.83-6.29.61-7.92-5.8-8-7.46-.08-14.93.26-22.37-.11-5.57-.28-8,2.14-9.46,7.29-6.48,22.71-14,45.15-19.69,68-3.1,12.36-8,20.88-21.63,22.07a7,7,0,0,0-5,3.36c-1.75,4-2.67,8.35-4.26,13.68l20.31-5.66Z"/><path class="cls-2" d="M72,209.65l18.26-62L70,153.33c1.59-5.33,2.51-9.69,4.26-13.68a7,7,0,0,1,5-3.36c13.67-1.19,18.53-9.71,21.63-22.07,5.73-22.89,13.21-45.33,19.69-68C122,41,124.42,38.61,130,38.89c7.44.37,14.91,0,22.37.11,6.41.08,7.63,1.71,5.8,8-6.59,22.67-13.28,45.32-19.92,68-.21.74-.37,1.49-.78,3.14l20.2-5.81c-1.48,5.3-2.43,9.81-4.1,14-.56,1.4-2.9,2.81-4.54,3-14,1.29-20.05,9.44-22.2,22.72-1.47,9.14-5,17.94-7.81,27.34h67.74c8.35,0,9.25,1.27,6.89,9.34-1.53,5.25-3,10.51-4.53,15.77-1.09,3.8-3.39,6-7.56,6q-53.3-.06-106.58-.1A14.65,14.65,0,0,1,72,209.65Z"/></svg>