<svg id="Capa_1" data-name="Capa 1" xmlns="http://www.w3.org/2000/svg" viewBox="0 0 736 732.55"><defs><style>.cls-1{fill:#22a5fd;}</style></defs><title>TWINCAHT_Iconos</title><path class="cls-1" d="M685.46,412.84V661.26a58.86,58.86,0,0,1-58.8,58.79H109.25a58.86,58.86,0,0,1-58.8-58.79V412.84a11.76,11.76,0,0,1,23.52,0V661.26a35.32,35.32,0,0,0,35.28,35.27H237.13V498.09a58.86,58.86,0,0,1,58.8-58.79H440a58.86,58.86,0,0,1,58.8,58.79V649.5a11.76,11.76,0,0,1-23.52,0V498.09A35.32,35.32,0,0,0,440,462.82h-144a35.32,35.32,0,0,0-35.28,35.27V696.53H356.2V511.32a11.76,11.76,0,0,1,23.52,0V696.53H626.66a35.31,35.31,0,0,0,35.28-35.27V412.84a11.76,11.76,0,1,1,23.52,0ZM91.61,202.64a11.77,11.77,0,0,0,11.76,11.76c639.81,0,608.09,1.14,612.76-2.44a11.67,11.67,0,0,0,4.48-7.69c.66-4.73,4.88,6.89-77.28-182.7a11.75,11.75,0,0,0-10.79-7.08H103.37a11.75,11.75,0,0,0-10.79,7.08L16.14,198c-1.35,3.12-1-1.83-1,77.64.09,53.48,43.61,97,97,97a97.1,97.1,0,0,0,85.23-50.79c36.79,67.6,133.68,67.67,170.54,0,36.82,67.58,133.67,67.59,170.51,0a97,97,0,0,0,182.27-46.26,11.76,11.76,0,1,0-23.52,0,73.5,73.5,0,0,1-147,0,11.76,11.76,0,1,0-23.52,0,73.5,73.5,0,0,1-147,0,11.76,11.76,0,1,0-23.51,0,73.5,73.5,0,1,1-147-.59,11.76,11.76,0,0,0-23.52,0,73.5,73.5,0,1,1-147,.59v-70.5L111.09,38H624.82l66.25,152.87H103.37a11.75,11.75,0,0,0-11.76,11.76Z"/><path class="cls-1" d="M626.66,730.46H109.25A69.28,69.28,0,0,1,40,661.26V412.84a22.17,22.17,0,0,1,44.34,0V661.26a24.89,24.89,0,0,0,24.87,24.86H226.73v-188a69.28,69.28,0,0,1,69.2-69.21H440a69.29,69.29,0,0,1,69.21,69.21V649.5a22.17,22.17,0,0,1-44.34,0V498.1A24.9,24.9,0,0,0,440,473.22h-144a24.9,24.9,0,0,0-24.87,24.88v188h74.73V511.32a22.17,22.17,0,1,1,44.33,0v174.8H626.66a24.89,24.89,0,0,0,24.87-24.86V412.84a22.17,22.17,0,1,1,44.34,0V661.26A69.28,69.28,0,0,1,626.66,730.46ZM60.86,412.84V661.26a48.44,48.44,0,0,0,48.39,48.38H626.66a48.43,48.43,0,0,0,48.39-48.38V412.84a1.35,1.35,0,0,0-1.35-1.36l-1.35,249.78a45.73,45.73,0,0,1-45.69,45.68H369.31V511.32h-2.7V706.94H250.24V498.1a45.74,45.74,0,0,1,45.69-45.69H440a45.73,45.73,0,0,1,45.69,45.69V649.5h2.7V498.1A48.45,48.45,0,0,0,440,449.7h-144a48.45,48.45,0,0,0-48.39,48.4V706.94H109.25a45.74,45.74,0,0,1-45.69-45.68V412.84ZM623.72,383a107.41,107.41,0,0,1-85.22-42.08c-20.16,26.58-51,42-85.28,42s-65.1-15.43-85.26-42c-20.17,26.54-51,42-85.25,42h0c-34.3,0-65.14-15.46-85.29-42.05A107.37,107.37,0,0,1,112.19,383C53.05,383,4.86,334.82,4.76,275.61l0-41.52c-.05-36.15-.05-36.15,1.79-40.1L83,17.43A22.15,22.15,0,0,1,103.37,4.08H632.54a22.17,22.17,0,0,1,20.34,13.34l44.75,103.09C732.17,200,732.17,200,730.91,205.83a22.09,22.09,0,0,1-8.43,14.39c-4.18,4.85-4.2,4.85-260.21,4.71-86.46-.05-202.66-.12-358.9-.12a22.17,22.17,0,1,1,0-44.34H675.21L618,48.41H117.92L49.1,207.24v68.33a63.22,63.22,0,0,0,63.09,63.09c34.79,0,63.09-28.56,63.09-63.67a22.17,22.17,0,1,1,44.33,0c0,35.11,28.3,63.67,63.09,63.67a63.15,63.15,0,0,0,63.09-63.09,22.17,22.17,0,1,1,44.33,0,63.09,63.09,0,0,0,126.18,0,22.17,22.17,0,1,1,44.33,0,63.09,63.09,0,1,0,126.18,0,22.17,22.17,0,1,1,44.34,0A107.55,107.55,0,0,1,623.72,383Zm-85.25-82.91,9.14,16.77a86.59,86.59,0,0,0,162.72-41.29h-2.7a83.91,83.91,0,1,1-167.81,0h-2.7a83.91,83.91,0,1,1-167.81,0H366.6a84,84,0,0,1-83.9,83.91c-46.26,0-83.9-37.9-83.9-84.49h-2.71c0,46.59-37.64,84.49-83.9,84.49a84.09,84.09,0,0,1-83.91-83.89l.86-74.65L104.26,27.6h527.4l75.26,173.69H103.37L102,202.64a1.36,1.36,0,0,0,1.35,1.35c156.25,0,272.45.07,358.91.12,182.83.13,236.31.15,247.57-.76l.29-.78c-2-5.61-10.44-25.09-31.6-73.77L633.78,25.7l-530.41-.8L25.69,202.1c-.18,1.21-.17,10.85-.14,32l0,41.53a86.57,86.57,0,0,0,162.7,41.23L197.42,300l9.14,16.79a85.56,85.56,0,0,0,76.12,45.29h0a85.54,85.54,0,0,0,76.11-45.26L368,300.09l9.14,16.77a86.63,86.63,0,0,0,152.23,0Z"/></svg>