<svg id="Capa_1" data-name="Capa 1" xmlns="http://www.w3.org/2000/svg" viewBox="0 0 516.13 472.82"><defs><style>.cls-1{fill:#99a0af;}</style></defs><title> ICONOS INACTIVOS </title><path class="cls-1" d="M295.13,13.69c19.41,10.64,41.81,28.64,70.47,56.67,1.06,1,2.55,2,4,1.63a5.78,5.78,0,0,0,4-1.6L399,46a5.28,5.28,0,0,0,1.64-4.2,5.37,5.37,0,0,0-2.21-4C351.43,3.39,347,2.59,303.32,3.43l-5.48.1a5.62,5.62,0,0,0-5.39,4.09A5.35,5.35,0,0,0,295.13,13.69Z"/><path class="cls-1" d="M478.79,113a5.82,5.82,0,0,0-8.51-.42l-25,24.73a5.29,5.29,0,0,0,.16,7.73c29.61,27.08,48.7,48.3,60.08,66.79a5.81,5.81,0,0,0,6.36,2.48,5.47,5.47,0,0,0,4.18-5.23l0-5.28C516.28,161.8,515.43,157.56,478.79,113Z"/><path class="cls-1" d="M362.91,95.8a13.93,13.93,0,0,0,4.37,10.13l38.79,37.24a.76.76,0,0,0,.09.09,15.35,15.35,0,0,0,10.41,4,15.61,15.61,0,0,0,10.57-4.1L478.88,93.5a14,14,0,0,0,0-20.24L440.09,36a15.87,15.87,0,0,0-10.55-4.2A15.08,15.08,0,0,0,419,36L367.29,85.68A13.89,13.89,0,0,0,362.91,95.8Z"/><path class="cls-1" d="M142.48,76.71a5.77,5.77,0,0,0,4,1.59c1.64-.47,3-.59,4.05-1.63,28.65-28,51-46,70.46-56.67a5.35,5.35,0,0,0,2.68-6.07,5.62,5.62,0,0,0-5.39-4.09l-5.48-.1c-43.67-.81-48.11,0-95.12,34.45a5.31,5.31,0,0,0-.57,8.17Z"/><path class="cls-1" d="M70.65,151.29a5.28,5.28,0,0,0,.16-7.72l-25-24.72a5.82,5.82,0,0,0-8.52.41C.7,163.87-.16,168.11,0,210.06l0,5.28a5.48,5.48,0,0,0,4.18,5.23,5.8,5.8,0,0,0,1.49.19,5.71,5.71,0,0,0,4.87-2.67C21.94,199.61,41,178.39,70.65,151.29Z"/><path class="cls-1" d="M288.79,251.2,394.9,149.31a5.28,5.28,0,0,0,0-7.69l-26-25a5.84,5.84,0,0,0-8,0L254.77,218.54,155.24,123a5.85,5.85,0,0,0-8,0l-26,25a5.28,5.28,0,0,0,0,7.69l99.54,95.58L37.58,427.1a22.51,22.51,0,0,0-6.22,22.3,23.62,23.62,0,0,0,17,16.33,24.81,24.81,0,0,0,23.23-6l183.18-175.9L444.53,466.07a24.9,24.9,0,0,0,23.23,6,23.66,23.66,0,0,0,17-16.33,22.54,22.54,0,0,0-6.23-22.3Z"/><path class="cls-1" d="M89,149.48l.09.09a15.4,15.4,0,0,0,10.41,4,15.63,15.63,0,0,0,10.58-4.11l38.77-37.24a13.9,13.9,0,0,0,0-20.25L97.13,42.34a15.27,15.27,0,0,0-10.5-4.2h-.06A15.35,15.35,0,0,0,76,42.33L37.24,79.57a14,14,0,0,0,0,20.25Z"/></svg>