<svg id="Capa_1" data-name="Capa 1" xmlns="http://www.w3.org/2000/svg" viewBox="0 0 744.32 727.58"><defs><style>.cls-1{fill:#175791;}.cls-2{fill:#22a5fd;}</style></defs><title>TWINCAHT_Iconos</title><path class="cls-1" d="M28.9,367.23c0,196.46,159.83,356.3,356.29,356.3s356.29-159.84,356.29-356.3S581.65,11,385.19,11,28.9,170.78,28.9,367.23Zm647.8,0c0,160.74-130.77,291.52-291.51,291.52S93.68,528,93.68,367.23,224.45,75.73,385.19,75.73,676.7,206.5,676.7,367.23Z"/><path class="cls-1" d="M346.32,172.9v38a97.16,97.16,0,0,0,32.39,188.77,32.39,32.39,0,1,1,0,64.77c-13.83,0-28.78-8.69-42.06-24.5a32.39,32.39,0,1,0-49.58,41.69c17.31,20.59,37.68,34.94,59.25,42.18v37.81a32.39,32.39,0,0,0,64.78,0v-38a97.16,97.16,0,0,0-32.39-188.77,32.4,32.4,0,0,1,0-64.79c11.48,0,23.59,5.86,35,16.94a32.39,32.39,0,0,0,45.06-46.55c-16.44-15.91-32.9-24.91-47.7-29.82V172.9a32.39,32.39,0,1,0-64.78,0Z"/><path class="cls-2" d="M2.84,360.34c0,196.45,159.83,356.3,356.29,356.3s356.28-159.85,356.28-356.3S555.58,4.05,359.13,4.05,2.84,163.88,2.84,360.34Zm647.8,0c0,160.74-130.77,291.51-291.51,291.51S67.61,521.08,67.61,360.34,198.39,68.84,359.13,68.84,650.64,199.61,650.64,360.34Z"/><path class="cls-2" d="M320.26,166v38a97.17,97.17,0,0,0,32.39,188.78,32.39,32.39,0,0,1,0,64.77c-13.83,0-28.78-8.69-42.06-24.5A32.39,32.39,0,1,0,261,474.7c17.31,20.59,37.67,34.94,59.25,42.18v37.8a32.39,32.39,0,1,0,64.77,0V516.73A97.17,97.17,0,0,0,352.65,328a32.39,32.39,0,1,1,0-64.78c11.48,0,23.59,5.86,35,16.93a32.39,32.39,0,1,0,45.05-46.55c-16.44-15.91-32.89-24.9-47.7-29.81V166a32.39,32.39,0,1,0-64.77,0Z"/></svg>