<svg id="Capa_1" data-name="Capa 1" xmlns="http://www.w3.org/2000/svg" viewBox="0 0 500 442.64"><defs><style>.cls-1{fill:#0099fd;}</style></defs><title>TWINBUSINESS ICONOS ACTIVOS </title><path class="cls-1" d="M341.44,191.08H465.28V117.16A30.11,30.11,0,0,0,435,86.93H75.52C64,85,55.36,78.28,55.36,65.81c0-14.4,12-21.6,26.4-21.6H392.32c14.4,0,24.48-7.2,24.48-21.6S407.2,1,392.32,1H81.76C38.09.53,2.57,26.45,2.57,70.13V116.2h0V411.4a30.11,30.11,0,0,0,30.24,30.24H435a30.11,30.11,0,0,0,30.24-30.24V337.48H341.44a72.93,72.93,0,0,1-73-73C268.48,224.2,301.12,191.08,341.44,191.08Z"/><path class="cls-1" d="M481.59,216H341.44A48.35,48.35,0,0,0,293,264.52c0,26.4,21.6,48,48.48,48H481.59a16,16,0,0,0,15.84-15.84v-64.8A16,16,0,0,0,481.59,216ZM379.84,287.56a23,23,0,1,1,23-23A23,23,0,0,1,379.84,287.56Z"/></svg>