<svg id="Capa_1" data-name="Capa 1" xmlns="http://www.w3.org/2000/svg" viewBox="0 0 885.09 732.55"><defs><style>.cls-1{fill:#99a0af;}</style></defs><title>TWINCAHT_Iconos</title><path class="cls-1" d="M370.09,730.07c-2,0-3.92-.06-5.85-.14-1.23.09-2.47.14-3.72.14H54.37A51.36,51.36,0,0,1,7.16,658.45l35.29-82.34C16.55,536.86,3,493.48,3,449.08c0-154.93,164.67-281,367.09-281s367.08,126,367.08,281S572.5,730.07,370.09,730.07ZM359.82,627H361l9.11.35c143.29,0,264.33-81.62,264.33-178.23s-121-178.23-264.33-178.23S105.75,352.48,105.75,449.08c0,30.35,11.71,59.57,34.8,86.86a51.36,51.36,0,0,1,8,53.42l-16.26,37.95H353.71A51.53,51.53,0,0,1,359.82,627Z"/><path class="cls-1" d="M830.71,564.46H673.31a51.38,51.38,0,0,1,0-102.76H752.8l-16.26-38a51.4,51.4,0,0,1,8-53.43c23.08-27.27,34.79-56.49,34.79-86.85,0-96.61-121.05-178.23-264.34-178.23-132.09,0-247.46,69.53-262.64,158.28a51.38,51.38,0,0,1-101.28-17.33C174.84,107.25,331.3,2.48,515,2.48c202.42,0,367.09,126.05,367.09,281,0,44.42-13.55,87.79-39.43,127l35.28,82.36a51.37,51.37,0,0,1-47.23,71.62Z"/><path class="cls-1" d="M507.35,495.31c-28.89.41-48.43-20.18-48.83-48.52-.42-29.39,18.54-50,46.88-50.4s48.43,20.18,48.84,49C554.64,473.78,535.15,494.91,507.35,495.31Z"/><path class="cls-1" d="M368.24,497.28c-28.88.41-48.42-20.18-48.83-48.52-.41-29.39,18.54-50,46.89-50.4s48.43,20.18,48.83,49C415.54,475.75,396,496.88,368.24,497.28Z"/><path class="cls-1" d="M229.16,499.25c-28.89.41-48.43-20.18-48.83-48.52-.42-29.39,18.54-50,46.88-50.39s48.43,20.17,48.84,49C276.45,477.72,257,498.85,229.16,499.25Z"/></svg>