<svg id="Capa_1" data-name="Capa 1" xmlns="http://www.w3.org/2000/svg" viewBox="0 0 926 727.58"><defs><style>.cls-1{fill:#175791;}.cls-2{fill:#338aff;}.cls-3{fill:#3393fd;}</style></defs><title>TWINCAHT_Iconos</title><path class="cls-1" d="M898,528.73H732.84a23.81,23.81,0,1,1,0-47.61H861.69l-35-81a23.67,23.67,0,0,1,3.73-24.75c28.53-33.49,43.61-71.45,43.61-109.77C874.07,146.71,736.19,50,566.72,50c-155.34,0-286.53,81.57-305.14,189.74a24,24,0,0,1-47.23-8C236.85,101,388.33,2.4,566.72,2.4,762.62,2.4,922,120.45,922,265.56c0,45.21-15.7,89.49-45.57,128.86l43.63,101.12A23.68,23.68,0,0,1,918,518,24,24,0,0,1,898,528.73Z"/><path class="cls-2" d="M866.62,528.73H701.44a23.81,23.81,0,1,1,0-47.61H830.28l-35-81a23.69,23.69,0,0,1,3.74-24.75c28.53-33.49,43.6-71.45,43.6-109.77C842.66,146.71,704.79,50,535.32,50,380,50,248.79,131.57,230.18,239.74a24,24,0,0,1-47.24-8C205.44,101,356.93,2.4,535.32,2.4c195.9,0,355.27,118.05,355.27,263.16,0,45.21-15.71,89.49-45.57,128.86l43.63,101.12a23.68,23.68,0,0,1-2,22.48A24,24,0,0,1,866.62,528.73Z"/><path class="cls-1" d="M367.11,707.27c-2.33,0-4.63-.1-6.92-.21a22.92,22.92,0,0,1-3.12.21H35.81a24,24,0,0,1-20-10.71,23.68,23.68,0,0,1-2-22.48L57.41,573C27.55,533.59,11.84,489.31,11.84,444.1c0-145.11,159.37-263.17,355.27-263.17S722.38,299,722.38,444.1,563,707.27,367.11,707.27Zm-10.77-48h.54l5.18.2c1.67.08,3.34.17,5.05.17,169.48,0,307.35-96.7,307.35-215.56S536.59,228.54,367.11,228.54,59.77,325.24,59.77,444.1c0,38.32,15.07,76.28,43.6,109.77a23.67,23.67,0,0,1,3.73,24.75l-34.95,81h280A22.43,22.43,0,0,1,356.34,659.28Z"/><path class="cls-2" d="M359.28,725.19c-2.32,0-4.61-.09-6.89-.21a23.36,23.36,0,0,1-3.15.21H28A24,24,0,0,1,8,714.48,23.67,23.67,0,0,1,6,692L49.58,590.89C19.71,551.51,4,507.24,4,462,4,316.91,163.38,198.85,359.28,198.85S714.55,316.91,714.55,462,555.18,725.19,359.28,725.19Zm-10.77-48h.54l5.25.21c1.65.08,3.3.17,5,.17,169.47,0,307.35-96.7,307.35-215.56S528.75,246.45,359.28,246.45,51.93,343.16,51.93,462c0,38.32,15.08,76.28,43.61,109.77a23.69,23.69,0,0,1,3.73,24.76l-35,81H344.23A24.16,24.16,0,0,1,348.51,677.19Z"/><path class="cls-1" d="M514.1,506.09c-30.32.43-50.82-21-51.24-50.57-.44-30.64,19.45-52.12,49.19-52.54s50.82,21,51.25,51.12C563.72,483.65,543.27,505.68,514.1,506.09Z"/><path class="cls-1" d="M368.12,508.15c-30.32.43-50.82-21-51.24-50.58-.44-30.64,19.45-52.12,49.2-52.54s50.82,21,51.25,51.13C417.75,485.71,397.29,507.74,368.12,508.15Z"/><path class="cls-1" d="M222.16,510.2c-30.31.43-50.82-21-51.24-50.57-.44-30.64,19.46-52.12,49.2-52.54s50.82,21,51.25,51.12C271.79,487.76,251.34,509.79,222.16,510.2Z"/><path class="cls-3" d="M503.32,510.2c-30.32.43-50.82-21-51.24-50.57-.44-30.64,19.45-52.12,49.2-52.54s50.82,21,51.25,51.12C553,487.76,532.49,509.79,503.32,510.2Z"/><path class="cls-3" d="M357.34,512.26c-30.31.43-50.82-21-51.24-50.58-.44-30.64,19.46-52.12,49.2-52.54s50.82,21,51.25,51.13C407,489.81,386.51,511.85,357.34,512.26Z"/><path class="cls-3" d="M211.39,514.31c-30.32.43-50.82-21-51.25-50.58-.43-30.63,19.46-52.11,49.2-52.53s50.82,21,51.25,51.12C261,491.87,240.56,513.9,211.39,514.31Z"/></svg>