<svg id="Capa_1" data-name="Capa 1" xmlns="http://www.w3.org/2000/svg" viewBox="0 0 883.21 733.4"><defs><style>.cls-1{fill:#338aff;}.cls-2{fill:#3393fd;}</style></defs><title>TWINCAHT_Iconos</title><path class="cls-1" d="M369.38,729.3c-1.95,0-3.87-.06-5.8-.14-1.23.09-2.47.14-3.73.14H54.71A51.2,51.2,0,0,1,7.65,657.92l35.17-82.08C17,536.73,3.51,493.49,3.51,449.24c0-154.43,164.13-280.07,365.87-280.07S735.26,294.81,735.26,449.24,571.13,729.3,369.38,729.3ZM359.15,626.51h1.16l9.07.36c142.82,0,263.47-81.35,263.47-177.64S512.2,271.58,369.38,271.58,105.92,352.94,105.92,449.24c0,30.25,11.67,59.37,34.68,86.57a51.17,51.17,0,0,1,8,53.25l-16.21,37.82H353A52.72,52.72,0,0,1,359.15,626.51Z"/><path class="cls-1" d="M828.5,564.22H671.6a51.21,51.21,0,1,1,0-102.41h79.23L734.63,424a51.17,51.17,0,0,1,8-53.25c23-27.19,34.68-56.32,34.68-86.57,0-96.29-120.65-177.64-263.47-177.64-131.67,0-246.65,69.29-261.77,157.74A51.21,51.21,0,1,1,151.1,247C174.77,108.53,330.7,4.11,513.82,4.11c201.75,0,365.88,125.63,365.88,280.05,0,44.25-13.5,87.49-39.31,126.61l35.17,82.08a51.19,51.19,0,0,1-47.06,71.37Z"/><path class="cls-2" d="M506.19,495.3c-28.79.41-48.27-20.1-48.67-48.35-.41-29.29,18.48-49.83,46.73-50.23s48.27,20.1,48.68,48.88C553.33,473.85,533.9,494.91,506.19,495.3Z"/><path class="cls-2" d="M505.37,506.69c-16.53,0-31.51-5.95-42.25-16.81s-16.74-26-17-42.76c-.24-17.14,5.31-32.71,15.65-43.85,10.49-11.33,25.51-17.69,42.3-17.93h1c33.89,0,58.74,25.13,59.24,60.1.23,16.67-5.41,32-15.89,43.24-10.65,11.38-25.58,17.78-42.06,18h-1Zm-.29-98.6h-.66c-10.65.15-19.62,3.84-25.94,10.64s-9.74,16.63-9.57,28c.15,10.85,3.84,20.47,10.39,27.09A35.47,35.47,0,0,0,506,483.92h0c10.37-.14,19.29-3.88,25.75-10.8s9.92-16.61,9.76-27.36C541.23,423.16,526.6,408.09,505.08,408.09Z"/><path class="cls-2" d="M367.54,497.27c-28.79.41-48.26-20.11-48.66-48.36-.42-29.29,18.47-49.83,46.73-50.23s48.26,20.11,48.67,48.88C414.68,475.81,395.25,496.88,367.54,497.27Z"/><path class="cls-2" d="M366.72,508.66c-16.54,0-31.51-6-42.25-16.81s-16.74-26-17-42.79c-.25-17.11,5.31-32.69,15.65-43.84,10.5-11.32,25.52-17.69,42.3-17.92,34.33.17,59.71,24.79,60.21,60.1.23,16.66-5.41,32-15.89,43.23-10.65,11.38-25.58,17.78-42.07,18Zm-.29-98.61h-.66c-10.65.14-19.62,3.83-25.93,10.64s-9.75,16.63-9.58,28c.15,10.86,3.84,20.48,10.39,27.09s16.83,10.09,26.72,10.06h0c10.38-.15,19.3-3.88,25.76-10.8s9.92-16.62,9.76-27.37C402.58,425.11,388,410.05,366.43,410.05Z"/><path class="cls-2" d="M228.92,499.23c-28.79.41-48.27-20.1-48.67-48.35-.42-29.3,18.48-49.83,46.73-50.23s48.27,20.1,48.67,48.87C276.05,477.77,256.63,498.84,228.92,499.23Z"/><path class="cls-2" d="M228.1,510.63c-16.52,0-31.5-6-42.25-16.83s-16.75-26-17-42.76c-.5-35.88,23.33-61.29,57.95-61.77,15.8-.36,32,5.74,43,16.86,10.86,11,17,26.32,17.19,43.24.5,35-23.87,60.76-57.94,61.24h0ZM227.8,412h-.65c-21.91.32-35.84,15.49-35.52,38.7.16,10.83,3.84,20.46,10.4,27.08s16.64,10.17,26.73,10.06h0c21.22-.3,35.82-16,35.51-38.16-.15-11-3.91-20.8-10.6-27.55S238.17,412,227.8,412Z"/></svg>