<svg id="Capa_1" data-name="Capa 1" xmlns="http://www.w3.org/2000/svg" viewBox="0 0 607.98 609.54"><defs><style>.cls-1{fill:#175791;}.cls-2{fill:#22a5fd;}.cls-3{fill:#fff;}</style></defs><title>TWINCAHT_Iconos</title><circle class="cls-1" cx="308.75" cy="298.61" r="280.67" transform="translate(-120.72 305.78) rotate(-45)"/><path class="cls-1" d="M308.75,594.28c-163,0-295.68-132.64-295.68-295.68S145.71,2.93,308.75,2.93,604.42,135.57,604.42,298.6,471.78,594.28,308.75,594.28Zm0-561.34C162.26,32.94,43.08,152.11,43.08,298.6S162.26,564.27,308.75,564.27,574.41,445.09,574.41,298.6,455.24,32.94,308.75,32.94Z"/><circle class="cls-2" cx="291.73" cy="315.62" r="280.67" transform="translate(-137.73 298.73) rotate(-45)"/><path class="cls-2" d="M291.73,603.8C132.83,603.8,3.56,474.52,3.56,315.62S132.83,27.45,291.73,27.45,579.91,156.72,579.91,315.62,450.63,603.8,291.73,603.8Zm0-561.35C141.11,42.45,18.56,165,18.56,315.62S141.11,588.79,291.73,588.79,564.9,466.25,564.9,315.62,442.36,42.45,291.73,42.45Z"/><path class="cls-3" d="M354.49,394.62H229A102.59,102.59,0,0,0,126.5,497.1v89A20.49,20.49,0,0,0,147,606.61H436.47A20.49,20.49,0,0,0,457,586.11v-89A102.59,102.59,0,0,0,354.49,394.62Z"/><path class="cls-3" d="M291.73,122.9A123.22,123.22,0,1,0,415,246.14,123.37,123.37,0,0,0,291.73,122.9Z"/></svg>