<svg id="Capa_1" data-name="Capa 1" xmlns="http://www.w3.org/2000/svg" viewBox="0 0 736 732.55"><defs><style>.cls-1{fill:#175791;}.cls-2{fill:#338aff;}</style></defs><title>TWINCAHT_Iconos</title><path class="cls-1" d="M469.4,286.51c-3.5-49.16-44.36-88.79-95-92.18a103.6,103.6,0,0,0-77.15,26.49,98.4,98.4,0,0,0-32.57,72.69c0,13,10.84,23.49,24.21,23.49s24.22-10.52,24.22-23.49a51.19,51.19,0,0,1,17.19-38.35,54.69,54.69,0,0,1,40.78-14c26.7,1.78,48.22,22.66,50.06,48.55C423,315.9,405.26,339,379,344.7c-21.25,4.62-36.09,22.53-36.09,43.56v56.42c0,13,10.84,23.49,24.21,23.49s24.21-10.52,24.21-23.49V390.14C440.14,378.71,472.87,335.41,469.4,286.51Z"/><path class="cls-1" d="M384.26,521A24.74,24.74,0,0,0,350,521a23,23,0,0,0,0,33.23,24.79,24.79,0,0,0,34.24,0,23,23,0,0,0,0-33.23Z"/><path class="cls-1" d="M380,708.71C187.24,708.71,29.1,553.33,26.35,360,23.59,165,180,4,375,1.26h0c94.52-1,183.64,34.25,251.47,100.17S732.43,255.64,733.76,350a352.54,352.54,0,0,1-51.41,188,11.39,11.39,0,0,0-.7,10l43.4,127.61a21.58,21.58,0,0,1-20.12,28.51l-319.86,4.53ZM375.65,44.39c-171.24,2.43-308.59,143.73-306.17,315s143.43,309.17,315,306.17l290.2-4.11-33.53-98.65a54.26,54.26,0,0,1,4.36-47.17,309.21,309.21,0,0,0,45.14-165c-1.17-82.82-34.62-160.32-94.19-218.22s-137.32-89-220.79-88Z"/><path class="cls-2" d="M458.1,288.76c-3.49-49.16-44.35-88.8-95-92.18a103.59,103.59,0,0,0-77.15,26.49,98.4,98.4,0,0,0-32.57,72.69c0,13,10.84,23.48,24.21,23.48s24.21-10.51,24.21-23.48A51.27,51.27,0,0,1,319,257.4a54.74,54.74,0,0,1,40.78-14c26.7,1.78,48.22,22.66,50.06,48.55,1.86,26.16-15.83,49.27-42.06,55-21.25,4.61-36.1,22.53-36.1,43.56v56.42c0,13,10.85,23.49,24.22,23.49s24.21-10.52,24.21-23.49V392.39C428.84,381,461.58,337.66,458.1,288.76Z"/><path class="cls-2" d="M373,523.22a24.73,24.73,0,0,0-34.23,0,23,23,0,0,0,0,33.23,24.78,24.78,0,0,0,34.23,0,23,23,0,0,0,0-33.23Z"/><path class="cls-1" d="M679.66,726.5s59.12,4.71,45.69-48.52"/><path class="cls-2" d="M355.82,731.31c-92.44,0-179.73-35.47-246.33-100.2C41.66,565.19,3.57,476.93,2.24,382.6S36.47,199,102.41,131.13,256.59,25.21,350.93,23.87h0C445.19,23,534.57,58.11,602.39,124s105.92,154.2,107.26,248.54a352.69,352.69,0,0,1-51.43,188.05,11.31,11.31,0,0,0-.69,10l43.39,127.63a21.57,21.57,0,0,1-20.11,28.51L361,731.27C359.25,731.29,357.52,731.31,355.82,731.31ZM351.54,67c-82.82,1.17-160.3,34.62-218.21,94.18s-89.14,138-88,220.81S80,542.28,139.56,600.19,277.12,689,360.34,688.14L650.55,684,617,585.38a54.19,54.19,0,0,1,4.34-47.15,309.47,309.47,0,0,0,45.16-165C665.35,290.37,631.9,212.87,572.33,155S434.82,65.69,351.54,67Zm-.3-21.57h0Z"/></svg>