<svg id="Capa_1" data-name="Capa 1" xmlns="http://www.w3.org/2000/svg" viewBox="0 0 735.8 732.55"><defs><style>.cls-1{fill:#99a0af;}</style></defs><title>TWINCAHT_Iconos</title><path class="cls-1" d="M465.31,281.59C462,234.72,423,196.93,374.68,193.7A98.78,98.78,0,0,0,301.13,219a93.82,93.82,0,0,0-31.06,69.31c0,12.36,10.34,22.39,23.08,22.39s23.09-10,23.09-22.39a48.82,48.82,0,0,1,16.39-36.57,52.18,52.18,0,0,1,38.88-13.32c25.46,1.7,46,21.6,47.74,46.29,1.77,24.94-15.1,47-40.11,52.41-20.27,4.39-34.42,21.47-34.42,41.53V432.4c0,12.37,10.34,22.4,23.09,22.4s23.08-10,23.08-22.4v-52C437.41,369.5,468.62,328.21,465.31,281.59Z"/><path class="cls-1" d="M384.13,505.15a23.55,23.55,0,0,0-32.64,0,21.92,21.92,0,0,0,0,31.68,23.63,23.63,0,0,0,32.64,0,21.94,21.94,0,0,0,0-31.68Z"/><path class="cls-1" d="M367.83,729.25C170,729.26,7.76,569.81,5,371.42,2.11,171.3,162.62,6.17,362.76,3.32h0l5.21,0C565.75,3.29,728,162.74,730.85,361.15A361.75,361.75,0,0,1,681.77,548l39.39,115.8A46.27,46.27,0,0,1,678,724.91l-305,4.31Zm-3.77-633.4C215,98,95.36,221,97.48,370.12c2.08,147.79,123,266.6,270.37,266.61l3.89,0,241.34-3.42-20.59-60.59c-8.07-20.58-5.89-46.19,6.53-66.6a269.28,269.28,0,0,0,39.3-143.63c-2.1-149.11-124.73-269-274.26-266.61ZM679.4,541l.4,1.17C679.69,541.78,679.55,541.39,679.4,541Z"/></svg>