<svg id="Capa_1" data-name="Capa 1" xmlns="http://www.w3.org/2000/svg" viewBox="0 0 735.8 732.55"><defs><style>.cls-1{fill:#338aff;}</style></defs><title>TWINCAHT_Iconos</title><path class="cls-1" d="M466,281c-3.35-47.23-42.6-85.29-91.29-88.55a99.55,99.55,0,0,0-74.1,25.45,94.52,94.52,0,0,0-31.28,69.82c0,12.46,10.41,22.56,23.25,22.56s23.26-10.1,23.26-22.56a49.2,49.2,0,0,1,16.51-36.84,52.56,52.56,0,0,1,39.17-13.42c25.64,1.72,46.31,21.77,48.08,46.64,1.79,25.12-15.21,47.32-40.4,52.79-20.41,4.43-34.67,21.63-34.67,41.84v54.19c0,12.46,10.41,22.56,23.26,22.56s23.25-10.1,23.25-22.56V380.5C437.92,369.52,469.36,327.93,466,281Z"/><path class="cls-1" d="M384.25,506.17a23.76,23.76,0,0,0-32.89,0,22.1,22.1,0,0,0,0,31.91,23.81,23.81,0,0,0,32.89,0,22.1,22.1,0,0,0,0-31.91Z"/><path class="cls-1" d="M367.83,731.93C168.59,731.94,5.11,571.31,2.27,371.46-.59,169.86,161.11,3.52,362.72.65h0C564.61-1.69,730.65,159.5,733.52,361.11a364.41,364.41,0,0,1-49.44,188.17l39.68,116.66a46.61,46.61,0,0,1-43.46,61.61L373.08,731.9ZM364,93.85C213.83,96,93.35,219.92,95.48,370.14S221,641,371.76,638.69l243.13-3.44-20.74-61c-8.14-20.73-5.94-46.53,6.57-67.09a271.47,271.47,0,0,0,39.6-144.69C638.2,213.52,516.38,93.82,368,93.82l-3.91,0ZM681.69,542.28l.41,1.18C682,543.07,681.84,542.68,681.69,542.28Z"/></svg>