<svg id="Capa_1" data-name="Capa 1" xmlns="http://www.w3.org/2000/svg" viewBox="0 0 500 306.73"><defs><style>.cls-1{fill:#99a0af;}</style></defs><title> ICONOS INACTIVOS </title><path class="cls-1" d="M370.93,96.8,342.3,21.12,313.66,96.8a10.28,10.28,0,0,1-9.63,6.65H13.66v185A16.14,16.14,0,0,0,29.8,304.62H470.2a16.13,16.13,0,0,0,16.13-16.14v-185H380.56A10.29,10.29,0,0,1,370.93,96.8Zm66.26,43.33a16.14,16.14,0,0,1-16.13,16.14H336.48a16.14,16.14,0,0,1,0-32.27h84.58A16.13,16.13,0,0,1,437.19,140.13Z"/><polygon class="cls-1" points="1.96 82.85 296.92 82.85 327.47 2.11 32.52 2.11 1.96 82.85"/><polygon class="cls-1" points="357.13 2.11 387.68 82.85 498.04 82.85 467.48 2.11 357.13 2.11"/></svg>