<svg id="Capa_1" data-name="Capa 1" xmlns="http://www.w3.org/2000/svg" viewBox="0 0 607.98 609.54"><defs><style>.cls-1{fill:#22a5fd;}.cls-2{fill:#fff;}</style></defs><title>TWINCAHT_Iconos</title><circle class="cls-1" cx="303.99" cy="303.3" r="292.55" transform="translate(-125.43 303.79) rotate(-45)"/><path class="cls-1" d="M304,603.67C138.37,603.67,3.62,468.92,3.62,303.3S138.37,2.93,304,2.93,604.36,137.67,604.36,303.3,469.61,603.67,304,603.67Zm0-585.09C147,18.58,19.26,146.3,19.26,303.3S147,588,304,588,588.72,460.3,588.72,303.3,461,18.58,304,18.58Z"/><path class="cls-2" d="M369.4,385.65H238.58A106.93,106.93,0,0,0,131.76,492.46v92.78a21.36,21.36,0,0,0,21.37,21.36H454.85a21.36,21.36,0,0,0,21.37-21.36V492.46A106.93,106.93,0,0,0,369.4,385.65Z"/><path class="cls-2" d="M304,102.43c-70.83,0-128.46,57.62-128.46,128.45a128.46,128.46,0,0,0,256.92,0C432.45,160.05,374.82,102.43,304,102.43Z"/></svg>