<svg id="Capa_1" data-name="Capa 1" xmlns="http://www.w3.org/2000/svg" viewBox="0 0 411.8 410.91"><defs><style>.cls-1{fill:#3395ff;}</style></defs><title>TWINBUSINESS ICONOS</title><circle class="cls-1" cx="248.94" cy="226.97" r="10.76"/><path class="cls-1" d="M12.2,237.74A10.77,10.77,0,1,0,1.45,227,10.78,10.78,0,0,0,12.2,237.74Z"/><path class="cls-1" d="M119.81,280.78H12.2A10.75,10.75,0,0,0,1.45,291.54V399.15A10.75,10.75,0,0,0,12.2,409.91H119.81a10.76,10.76,0,0,0,10.76-10.76V291.54A10.76,10.76,0,0,0,119.81,280.78ZM109.05,388.39H23V302.3h86.08Z"/><path class="cls-1" d="M12.2,130.13H119.81a10.76,10.76,0,0,0,10.76-10.76V11.76A10.76,10.76,0,0,0,119.81,1H12.2A10.75,10.75,0,0,0,1.45,11.76V119.37A10.75,10.75,0,0,0,12.2,130.13ZM23,22.52h86.08v86.09H23Z"/><path class="cls-1" d="M399.59,1H292a10.76,10.76,0,0,0-10.76,10.76V119.37A10.76,10.76,0,0,0,292,130.13H399.59a10.76,10.76,0,0,0,10.76-10.76V11.76A10.76,10.76,0,0,0,399.59,1ZM388.83,108.61H302.74V22.52h86.09Z"/><path class="cls-1" d="M399.59,280.78H292a10.76,10.76,0,0,0-10.76,10.76V399.15A10.76,10.76,0,0,0,292,409.91H399.59a10.76,10.76,0,0,0,10.76-10.76V291.54A10.76,10.76,0,0,0,399.59,280.78ZM388.83,388.39H302.74V302.3h86.09Z"/><rect class="cls-1" x="44.49" y="323.82" width="43.04" height="43.04" rx="10.76"/><rect class="cls-1" x="44.49" y="44.04" width="43.04" height="43.04" rx="10.76"/><path class="cls-1" d="M335,87.08h21.52a10.76,10.76,0,0,0,10.76-10.76V54.8A10.76,10.76,0,0,0,356.55,44H335A10.77,10.77,0,0,0,324.26,54.8V76.32A10.76,10.76,0,0,0,335,87.08Z"/><path class="cls-1" d="M335,366.87h21.52a10.76,10.76,0,0,0,10.76-10.76V334.58a10.76,10.76,0,0,0-10.76-10.76H335a10.77,10.77,0,0,0-10.77,10.76v21.53A10.77,10.77,0,0,0,335,366.87Z"/><path class="cls-1" d="M205.9,302.3a10.76,10.76,0,0,0,10.76-10.76V227a10.76,10.76,0,0,0-10.76-10.76H55.25a10.77,10.77,0,0,0,0,21.53H195.13v53.8A10.77,10.77,0,0,0,205.9,302.3Z"/><path class="cls-1" d="M12.2,194.69H119.81a10.76,10.76,0,0,0,0-21.52H12.2a10.76,10.76,0,0,0,0,21.52Z"/><path class="cls-1" d="M162.85,194.69H205.9a10.76,10.76,0,0,0,0-21.52H162.85a10.76,10.76,0,0,0,0,21.52Z"/><path class="cls-1" d="M162.85,130.13h75.33v53.8a10.76,10.76,0,0,0,10.76,10.76h43a10.76,10.76,0,0,0,0-21.52H259.7v-53.8a10.75,10.75,0,0,0-10.76-10.76H173.61V11.76a10.76,10.76,0,0,0-21.52,0V119.37A10.76,10.76,0,0,0,162.85,130.13Z"/><path class="cls-1" d="M399.59,173.17H335a10.76,10.76,0,1,0,0,21.52h64.56a10.76,10.76,0,1,0,0-21.52Z"/><path class="cls-1" d="M399.59,216.21H292a10.77,10.77,0,0,0,0,21.53H399.59a10.77,10.77,0,0,0,0-21.53Z"/><path class="cls-1" d="M216.66,334.58a10.76,10.76,0,0,0-10.76-10.76H162.85a10.76,10.76,0,0,0-10.76,10.76v64.57a10.76,10.76,0,0,0,21.52,0V345.34H205.9A10.76,10.76,0,0,0,216.66,334.58Z"/><path class="cls-1" d="M248.94,259.26A10.76,10.76,0,0,0,238.18,270V388.39H205.9a10.76,10.76,0,1,0,0,21.52h43a10.76,10.76,0,0,0,10.76-10.76V270A10.76,10.76,0,0,0,248.94,259.26Z"/><path class="cls-1" d="M205.9,87.08h43A10.75,10.75,0,0,0,259.7,76.32V11.76a10.76,10.76,0,0,0-21.52,0v53.8H205.9a10.76,10.76,0,1,0,0,21.52Z"/></svg>