<svg id="Capa_1" data-name="Capa 1" xmlns="http://www.w3.org/2000/svg" xmlns:xlink="http://www.w3.org/1999/xlink" viewBox="0 0 377.7 359.42"><defs><style>.cls-1{fill:none;}.cls-2{clip-path:url(#clip-path);}.cls-3{fill:#3395ff;}.cls-4{fill:#fff;}</style><clipPath id="clip-path"><rect class="cls-1" x="-1" y="0.65" width="378.7" height="358.92"/></clipPath></defs><title>TWINBUSINESS ICONOS</title><g class="cls-2"><rect class="cls-3" x="22.36" y="126.48" width="42.75" height="188.75"/><rect class="cls-3" x="161.32" y="126.48" width="42.75" height="188.75"/><polygon class="cls-3" points="364.4 101.32 182.69 0.65 0.99 101.32 0.99 113.9 364.4 113.9 364.4 101.32"/><path class="cls-1" d="M261.58,275.17a10.89,10.89,0,0,1-.81-1.46A10.89,10.89,0,0,0,261.58,275.17Z"/><path class="cls-3" d="M228.91,327.78,1,327.88V358.4l258.76-.11A104.18,104.18,0,0,1,228.91,327.78Z"/><path class="cls-3" d="M343,170.56V126.48H300.27V168A98,98,0,0,1,343,170.56Z"/><path class="cls-4" d="M343,170.56A103.86,103.86,0,0,0,228.91,327.78a104.18,104.18,0,0,0,30.84,30.51,102.61,102.61,0,0,0,55.68,16.4c57.2,0,103.56-46.55,103.56-104A103.87,103.87,0,0,0,343,170.56Zm31.67,99.91c0,.34-.09.68-.16,1a9.39,9.39,0,0,1-.43,1.46,9.81,9.81,0,0,1-.6,1.37c-.16.29-.33.58-.51.85a10.25,10.25,0,0,1-8.51,4.54H329.59a2.06,2.06,0,0,0-2,2.06v35a10.26,10.26,0,1,1-20.52,0v-35a2.06,2.06,0,0,0-2-2.06H270.09a10.24,10.24,0,0,1-8.51-4.54,10.89,10.89,0,0,1-.81-1.46c-.07-.16-.15-.32-.21-.49a10.26,10.26,0,0,1,.07-7.82,10.57,10.57,0,0,1,.95-1.75,9,9,0,0,1,.59-.79,10.61,10.61,0,0,1,1-1.08,10.17,10.17,0,0,1,6.88-2.67H305a2.05,2.05,0,0,0,2-2.06V222a10.34,10.34,0,0,1,2.69-6.94A10.26,10.26,0,0,1,327.54,222v35a2.05,2.05,0,0,0,2,2.06h34.89a10.23,10.23,0,0,1,4.89,1.24,9,9,0,0,1,.84.52,10.25,10.25,0,0,1,4.32,6.47,10.09,10.09,0,0,1,.21,2.07C374.74,269.77,374.72,270.12,374.69,270.47Z"/><path class="cls-3" d="M372.4,262.86a10.36,10.36,0,0,0-2.19-2,9,9,0,0,0-.84-.52,10.23,10.23,0,0,0-4.89-1.24H329.59a2.05,2.05,0,0,1-2-2.06V222a10.28,10.28,0,0,0-3.66-7.88,10.21,10.21,0,0,0-14.17.94A10.34,10.34,0,0,0,307,222v35a2.05,2.05,0,0,1-2,2.06H270.09a10.17,10.17,0,0,0-6.88,2.67,10.61,10.61,0,0,0-1,1.08,9,9,0,0,0-.59.79,10.57,10.57,0,0,0-.95,1.75,10.26,10.26,0,0,0-.07,7.82c.06.17.14.33.21.49a10.89,10.89,0,0,0,.81,1.46,10.24,10.24,0,0,0,8.51,4.54H305a2.06,2.06,0,0,1,2,2.06v35a10.26,10.26,0,1,0,20.52,0v-35a2.06,2.06,0,0,1,2-2.06h34.89a10.25,10.25,0,0,0,8.51-4.54c.18-.27.35-.56.51-.85a9.81,9.81,0,0,0,.6-1.37,9.39,9.39,0,0,0,.43-1.46c.07-.34.12-.68.16-1s.05-.7.05-1.06a10.09,10.09,0,0,0-.21-2.07A10.3,10.3,0,0,0,372.4,262.86Z"/></g></svg>