<svg id="Capa_1" data-name="Capa 1" xmlns="http://www.w3.org/2000/svg" viewBox="0 0 381.8 383.34"><defs><style>.cls-1{fill:#3395ff;}</style></defs><title>TWINBUSINESS ICONOS</title><path class="cls-1" d="M7.87,95a7.44,7.44,0,0,0,7.44-7.44V16.08H86.73a7.44,7.44,0,0,0,0-14.88H7.87A7.44,7.44,0,0,0,.43,8.64V87.51A7.44,7.44,0,0,0,7.87,95Z"/><path class="cls-1" d="M94.17,374.71a7.45,7.45,0,0,0-7.44-7.45H15.31V295.84a7.44,7.44,0,0,0-14.88,0v78.87a7.45,7.45,0,0,0,7.44,7.44H86.73A7.45,7.45,0,0,0,94.17,374.71Z"/><path class="cls-1" d="M373.93,288.4a7.44,7.44,0,0,0-7.44,7.44v71.42H295.06a7.45,7.45,0,0,0,0,14.89h78.87a7.45,7.45,0,0,0,7.44-7.44V295.84A7.44,7.44,0,0,0,373.93,288.4Z"/><path class="cls-1" d="M373.93,1.2H295.06a7.44,7.44,0,1,0,0,14.88h71.43V87.51a7.44,7.44,0,1,0,14.88,0V8.64A7.44,7.44,0,0,0,373.93,1.2Z"/><path class="cls-1" d="M371.79,199.61H8.7a7.44,7.44,0,1,1,0-14.88H371.79a7.44,7.44,0,0,1,0,14.88Z"/></svg>