<svg id="Capa_1" data-name="Capa 1" xmlns="http://www.w3.org/2000/svg" viewBox="0 0 431.37 431.31"><defs><style>.cls-1{fill:#99a0af;}.cls-2{fill:#fff;}</style></defs><title>TWINBUSINESS ICONOS</title><path class="cls-1" d="M252.76,154.83a31.62,31.62,0,0,0-2-6.51c-.21-.5-.57-.89-.8-1.36a27.51,27.51,0,0,0-2.66-4.49c-.16-.21-.39-.36-.56-.56a26.42,26.42,0,0,0-4.27-4.25c-.41-.33-.95-.55-1.4-.86a32.43,32.43,0,0,0-4.8-2.92c-.63-.3-1.41-.48-2.08-.75a43.52,43.52,0,0,0-5.48-2c-.87-.23-1.91-.34-2.83-.54-2-.43-3.91-.89-6.1-1.16-1-.12-2.24-.12-3.32-.21-2.27-.18-4.49-.41-7-.44a152.56,152.56,0,0,0-20.89,1.28v68h22c26.5,0,43-13.4,43-35a43.11,43.11,0,0,0-.69-7.9C252.85,155.06,252.79,155,252.76,154.83Z"/><path class="cls-1" d="M215.65,0C96.55,0,0,96.55,0,215.66S96.55,431.31,215.65,431.31s215.66-96.55,215.66-215.65S334.76,0,215.65,0Zm0,417.1c-111.07,0-201.44-90.37-201.44-201.45S104.58,14.21,215.65,14.21,417.1,104.58,417.1,215.65,326.74,417.1,215.65,417.1Z"/><path class="cls-1" d="M215.65,23.52c-105.94,0-192.13,86.19-192.13,192.13s86.19,192.14,192.13,192.14S407.79,321.6,407.79,215.65,321.6,23.52,215.65,23.52ZM304.84,329a7.7,7.7,0,0,1-6.6,3.75h-30a7.71,7.71,0,0,1-6.66-3.84c-3.8-6.57-8.24-22.21-15.84-55.8-5.95-27.68-15.12-36.82-37.78-37.67H188.63v89.62a7.7,7.7,0,0,1-7.69,7.69H152a7.7,7.7,0,0,1-7.69-7.69V103.45a7.69,7.69,0,0,1,6.15-7.54c14.77-3,36.15-4.82,57.19-4.82,33,0,54.61,6.27,70.14,20.32,13,11.46,20.19,28.66,20.19,48.35,0,25.35-12.37,46.36-33.75,58.47,11.53,8.91,19.65,23.45,24.22,43.43,6.55,28,12.32,51.77,16.61,59.74A7.72,7.72,0,0,1,304.84,329Z"/><path class="cls-2" d="M215.65,14.21c-111.07,0-201.44,90.37-201.44,201.44S104.58,417.1,215.65,417.1,417.1,326.73,417.1,215.65,326.74,14.21,215.65,14.21Zm0,393.58c-105.94,0-192.13-86.19-192.13-192.14S109.71,23.52,215.65,23.52s192.14,86.19,192.14,192.13S321.6,407.79,215.65,407.79Z"/><path class="cls-2" d="M288.4,261.66c-4.57-20-12.69-34.52-24.22-43.43,21.38-12.11,33.75-33.12,33.75-58.47,0-19.69-7.2-36.89-20.19-48.35-15.53-14-37.16-20.32-70.14-20.32-21,0-42.42,1.81-57.19,4.82a7.69,7.69,0,0,0-6.15,7.54v221.6a7.7,7.7,0,0,0,7.69,7.69h29a7.7,7.7,0,0,0,7.69-7.69V235.43H208c22.66.85,31.83,10,37.78,37.67,7.6,33.59,12,49.23,15.84,55.8a7.71,7.71,0,0,0,6.66,3.84h30A7.69,7.69,0,0,0,305,321.4C300.72,313.43,295,289.63,288.4,261.66Zm-77.8-63.6h-22v-68a152.56,152.56,0,0,1,20.89-1.28c2.48,0,4.7.26,7,.44,1.08.09,2.29.09,3.32.21,2.19.27,4.12.73,6.1,1.16.92.2,2,.31,2.83.54a43.52,43.52,0,0,1,5.48,2c.67.27,1.45.45,2.08.75a32.43,32.43,0,0,1,4.8,2.92c.45.31,1,.53,1.4.86a26.42,26.42,0,0,1,4.27,4.25c.17.2.4.35.56.56A27.51,27.51,0,0,1,250,147c.23.47.59.86.8,1.36a31.62,31.62,0,0,1,2,6.51c0,.13.09.23.11.36a43.11,43.11,0,0,1,.69,7.9C253.56,184.66,237.1,198.06,210.6,198.06Z"/></svg>