<svg id="Capa_1" data-name="Capa 1" xmlns="http://www.w3.org/2000/svg" viewBox="0 0 500 424.81"><defs><style>.cls-1{fill:#99a0af;}</style></defs><title> ICONOS INACTIVOS </title><path class="cls-1" d="M427.27,229.27H388.73a100.42,100.42,0,0,1,6.07,34.46V409.42a42.9,42.9,0,0,1-2.48,14.39h63.73a43.22,43.22,0,0,0,43.17-43.17V301.22A72,72,0,0,0,427.27,229.27Z"/><path class="cls-1" d="M111.28,229.27H72.73a72,72,0,0,0-71.95,72v79.42A43.23,43.23,0,0,0,44,423.81h63.72a42.9,42.9,0,0,1-2.47-14.39V263.73A100.18,100.18,0,0,1,111.28,229.27Z"/><path class="cls-1" d="M294.06,191.78H205.94a72,72,0,0,0-71.95,72V409.42a14.39,14.39,0,0,0,14.39,14.39H351.63A14.39,14.39,0,0,0,366,409.42V263.73A72,72,0,0,0,294.06,191.78Z"/><path class="cls-1" d="M207.71,163a86.52,86.52,0,1,0-44.24-75.47A86,86,0,0,0,207.71,163Z"/><path class="cls-1" d="M155.16,176.77a64.67,64.67,0,1,0-31.6,29.07A65.09,65.09,0,0,0,155.16,176.77Z"/><path class="cls-1" d="M466.66,146.37A64.7,64.7,0,1,0,402,211.08,64.79,64.79,0,0,0,466.66,146.37Z"/></svg>