<svg id="Capa_1" data-name="Capa 1" xmlns="http://www.w3.org/2000/svg" viewBox="0 0 284.14 417.82"><defs><style>.cls-1{fill:none;}.cls-2{fill:#99a0af;}.cls-3{fill:#5e6166;}</style></defs><title> ICONOS INACTIVOS </title><path class="cls-1" d="M139.31,25.2A103.22,103.22,0,0,1,233.25,86c-7.06-40.21-45.62-70.86-91.8-71.3-47.8-.45-86.41,28-95.7,70.53A103.22,103.22,0,0,1,139.31,25.2Z"/><path class="cls-1" d="M189.73,218.34A102.49,102.49,0,0,1,175.31,225c13.45.16,26.68-.3,38.27-8.1,13.09-8.79,20.91-20.21,21-35.19q0-7.06.1-14.12A103.78,103.78,0,0,1,189.73,218.34Z"/><path class="cls-2" d="M191.85,269.75H86.78C39.48,269.75,1,301.64,1,340.84V402.6c0,7.85,7.68,14.22,17.16,14.22H260.47c9.48,0,17.16-6.37,17.16-14.22V340.84C277.63,301.64,239.15,269.75,191.85,269.75Z"/><path class="cls-2" d="M129.64,214.4c6.78-.3,13.6-.11,20.4,0,6,.06,10.55,2.87,13.93,7.08,2.13,2.66,4.64,3.44,8.11,3.5l3.23,0a102.49,102.49,0,0,0,14.42-6.65,103.78,103.78,0,0,0,45-50.76c.18-23.42.35-46.85-.21-70.26A76.2,76.2,0,0,0,233.25,86a103,103,0,0,0-187.5-.77l0,.11c-1.12,5.15-1.13,10.34-1.13,15.54,0,22.75,0,45.51-.05,68.27A103.78,103.78,0,0,0,88.9,218.34a102.44,102.44,0,0,0,23,9.46,17.58,17.58,0,0,1,.75-2.22C115.55,218.63,121.43,214.75,129.64,214.4Z"/><path class="cls-3" d="M255,103.49c-4.68,0-4.85-2.63-5.05-5.71a97.33,97.33,0,0,0-23.71-58.65C198.61,6.8,152.65-6.46,107.52,5.13,66.59,15.63,34.76,50.22,30.08,89.29c0,.38-.08.76-.13,1.14,0,0-.6,9.53-1.18,22.51H21v53.62H27.9c.34,8.65,1.07,15.16,2.46,17.27,1,1.51,2.42,2.75,7.28,2.3,3.32-.3,5.55-2.07,6.11-5a46.9,46.9,0,0,0,.78-8.61c0-1.13,0-2.26,0-3.39.05-22.76,0-45.52.05-68.27,0-5.2,0-10.39,1.13-15.54l0-.11c9.29-42.49,47.9-71,95.7-70.53,46.18.44,84.74,31.09,91.8,71.3a76.2,76.2,0,0,1,1.23,11.37c.56,23.41.39,46.84.21,70.26q-.06,7.06-.1,14.12c-.1,15-7.92,26.4-21,35.19-11.59,7.8-24.82,8.26-38.27,8.1l-3.23,0c-3.47-.06-6-.84-8.11-3.5-3.38-4.21-7.91-7-13.93-7.08-6.8-.08-13.62-.27-20.4,0-8.21.35-14.09,4.23-17,11.18a17.58,17.58,0,0,0-.75,2.22c-1.64,5.87.09,11.34,4.77,16,9.1,9.15,38.32,8.41,46.94-1.08a4.64,4.64,0,0,0,.76-.92c1.57-3.13,4.41-3.6,7.88-3.62,8.06,0,16.23.91,24.17-.66,27.51-5.46,44.94-20.58,52-45.37.86-3,1-6.15,6-5.89,14.57.76,23.49-6.16,28.79-17.81V122.24C278.37,110.33,269.38,103.51,255,103.49Z"/></svg>