<svg id="Capa_1" data-name="Capa 1" xmlns="http://www.w3.org/2000/svg" viewBox="0 0 608.48 596.92"><defs><style>.cls-1{fill:#22a5fd;}</style></defs><title>TWINCAHT_Iconos</title><path class="cls-1" d="M114.43,458.53a47.76,47.76,0,0,0-23.07,5.89,270.45,270.45,0,0,1-57-166c0-148.84,121.09-269.93,269.93-269.93A272.2,272.2,0,0,1,358,33.88a11.44,11.44,0,0,0,4.53-22.42,295.18,295.18,0,0,0-58.29-5.81A292.81,292.81,0,0,0,74.44,479.92a48.06,48.06,0,1,0,40-21.39Zm17.79,65.83a25.17,25.17,0,1,1,7.37-17.79A25,25,0,0,1,132.22,524.36Z"/><path class="cls-1" d="M114.43,563.64a57.11,57.11,0,0,1-50.86-83A303.06,303.06,0,0,1,2.4,298.46,301.83,301.83,0,0,1,304.24-3.38a303.9,303.9,0,0,1,60.07,6,20.48,20.48,0,1,1-8.11,40.14,262.75,262.75,0,0,0-52-5.18c-143.86,0-260.9,117-260.9,260.9A262,262,0,0,0,94.19,453.19a58,58,0,0,1,60.6,13,57.08,57.08,0,0,1-40.36,97.43ZM304.24,14.69A283.76,283.76,0,0,0,20.47,298.46,284.76,284.76,0,0,0,81.53,474.32l4.08,5.16L82,485a39.05,39.05,0,0,0,4.9,49.2c14.74,14.73,40.42,14.73,55.16,0A39,39,0,0,0,142,479c-12-12-31.6-14.73-46.3-6.65L89,476,84.24,470a280,280,0,0,1-59-171.51c0-153.82,125.14-279,279-279A281.46,281.46,0,0,1,359.78,25a2.65,2.65,0,0,0,2.83-1.88,2.42,2.42,0,0,0-1.89-2.84A286.44,286.44,0,0,0,304.24,14.69ZM114.43,540.77a34.2,34.2,0,0,1-24.18-58.38c12.89-12.91,35.44-12.93,48.36,0a34.17,34.17,0,0,1,0,48.35h0A34,34,0,0,1,114.43,540.77Zm0-50.33A16.12,16.12,0,0,0,103,518a16.46,16.46,0,0,0,22.81,0h0a16.13,16.13,0,0,0-11.41-27.52Z"/><path class="cls-1" d="M534,117a47.95,47.95,0,1,0-16.91,15.52,270.45,270.45,0,0,1,57,166c0,148.84-121.09,269.93-269.93,269.93A272.21,272.21,0,0,1,251,563.14a11.44,11.44,0,1,0-4.49,22.43,294.77,294.77,0,0,0,57.73,5.7A292.82,292.82,0,0,0,534,117Zm-57.77-8.83a25.18,25.18,0,1,1,17.79,7.36A25,25,0,0,1,476.26,108.15Z"/><path class="cls-1" d="M304.24,600.3a304.4,304.4,0,0,1-59.51-5.87,20.47,20.47,0,0,1,8-40.15,262.76,262.76,0,0,0,51.48,5.07c143.86,0,260.9-117,260.9-260.89a262.08,262.08,0,0,0-50.85-154.73,58,58,0,0,1-60.6-13,57.07,57.07,0,0,1,0-80.72c21.57-21.54,59.15-21.54,80.71,0a57.25,57.25,0,0,1,10.49,66.28,303.05,303.05,0,0,1,61.19,182.19A301.85,301.85,0,0,1,304.24,600.3ZM248.75,572a2.41,2.41,0,0,0-.47,4.77,286,286,0,0,0,56,5.51A283.77,283.77,0,0,0,588,298.46a284.87,284.87,0,0,0-61.07-175.88l-4.07-5.15,3.64-5.46a39.1,39.1,0,0,0-4.88-49.2c-14.73-14.72-40.43-14.72-55.16,0a39,39,0,0,0,0,55.16c12,12,31.61,14.73,46.29,6.66l6.75-3.72,4.73,6.07a280.19,280.19,0,0,1,59,171.52c0,153.82-125.14,279-279,279a281,281,0,0,1-55-5.42A2.42,2.42,0,0,0,248.75,572Zm245.3-447.4a34,34,0,0,1-24.18-10h0a34.2,34.2,0,0,1,0-48.37c12.89-12.91,35.45-12.91,48.36,0a34.2,34.2,0,0,1-24.18,58.38Zm-11.41-22.79a16.52,16.52,0,0,0,22.82,0,16.14,16.14,0,0,0,0-22.8,16.51,16.51,0,0,0-22.8,0,16.13,16.13,0,0,0,0,22.81Z"/><path class="cls-1" d="M257,495.19a11.44,11.44,0,0,0,11.44,11.44H340a11.44,11.44,0,0,0,11.43-11.44V473a178.49,178.49,0,0,0,42.93-17.79L410,470.88a11.42,11.42,0,0,0,16.17,0l50.55-50.58a11.43,11.43,0,0,0,0-16.17l-15.63-15.64a179.3,179.3,0,0,0,17.79-42.93H501a11.44,11.44,0,0,0,11.43-11.44V262.6A11.44,11.44,0,0,0,501,251.16h-22.1a179.2,179.2,0,0,0-17.78-42.92l15.55-15.56a11.43,11.43,0,0,0,0-16.18L426.06,126a11.43,11.43,0,0,0-16.17,0l-15.53,15.53a179.3,179.3,0,0,0-42.93-17.79v-22A11.44,11.44,0,0,0,340,90.29H268.48A11.44,11.44,0,0,0,257,101.73v22a179.4,179.4,0,0,0-42.92,17.79L198.58,126a11.43,11.43,0,0,0-16.17,0L131.82,176.5a11.44,11.44,0,0,0,0,16.18l15.55,15.56a179.23,179.23,0,0,0-17.79,42.92H107.53A11.43,11.43,0,0,0,96.1,262.59l0,71.52a11.44,11.44,0,0,0,11.44,11.44h22.09a179.3,179.3,0,0,0,17.79,42.93l-15.63,15.64a11.43,11.43,0,0,0,0,16.17l50.54,50.58a11.45,11.45,0,0,0,8.09,3.36h0a11.44,11.44,0,0,0,8.08-3.35l15.65-15.66A178.83,178.83,0,0,0,257,473Zm-38.44-64a11.44,11.44,0,0,0-14.3,1.52l-13.92,13.92L156,412.21l13.91-13.92A11.44,11.44,0,0,0,171.43,384a156.72,156.72,0,0,1-21.67-52.29,11.43,11.43,0,0,0-11.18-9H118.93L119,274h19.62a11.43,11.43,0,0,0,11.18-9,156.75,156.75,0,0,1,21.67-52.28,11.46,11.46,0,0,0-1.52-14.3L156.09,184.6l34.4-34.38L204.3,164a11.46,11.46,0,0,0,14.3,1.52,156.58,156.58,0,0,1,52.28-21.67,11.44,11.44,0,0,0,9-11.18V113.17h48.64V132.7a11.43,11.43,0,0,0,9,11.18,156.58,156.58,0,0,1,52.28,21.67,11.45,11.45,0,0,0,14.3-1.52L418,150.22l34.41,34.38-13.82,13.82a11.43,11.43,0,0,0-1.52,14.3A156.73,156.73,0,0,1,458.71,265a11.43,11.43,0,0,0,11.18,9h19.66v48.65H469.89a11.44,11.44,0,0,0-11.18,9A156.44,156.44,0,0,1,437.05,384a11.43,11.43,0,0,0,1.52,14.3l13.91,13.91L418.1,446.61l-13.93-13.92a11.43,11.43,0,0,0-14.3-1.52,156.36,156.36,0,0,1-52.28,21.66,11.44,11.44,0,0,0-9,11.19v19.73H279.92V464a11.46,11.46,0,0,0-9-11.19A156.53,156.53,0,0,1,218.6,431.17Z"/><path class="cls-1" d="M340,515.66H268.48A20.5,20.5,0,0,1,248,495.19V479.81a188.61,188.61,0,0,1-32.31-13.4l-10.85,10.86c-7.73,7.73-21.21,7.74-28.95,0l-50.55-50.58a20.51,20.51,0,0,1,0-29l10.83-10.83a188.71,188.71,0,0,1-13.39-32.31h-15.3A20.45,20.45,0,0,1,87,334.1l0-71.52a20.49,20.49,0,0,1,20.47-20.46h15.26a189.61,189.61,0,0,1,13.39-32.3l-10.75-10.75a20.48,20.48,0,0,1,0-29L176,119.57a20.48,20.48,0,0,1,28.95,0L215.7,130.3A188.43,188.43,0,0,1,248,116.91V101.74a20.49,20.49,0,0,1,20.47-20.48H340a20.5,20.5,0,0,1,20.47,20.48v15.17a188.76,188.76,0,0,1,32.3,13.38l10.73-10.72a20.5,20.5,0,0,1,28.95,0L483,170.11a20.48,20.48,0,0,1,0,29L472.3,209.82a188.9,188.9,0,0,1,13.38,32.3H501a20.49,20.49,0,0,1,20.47,20.48v71.51A20.49,20.49,0,0,1,501,354.58h-15.3a188.71,188.71,0,0,1-13.39,32.31l10.83,10.83a20.51,20.51,0,0,1,0,28.95l-50.56,50.59c-7.7,7.73-21.22,7.75-28.95,0l-10.85-10.86a189.28,189.28,0,0,1-32.31,13.4v15.38A20.5,20.5,0,0,1,340,515.66ZM212.62,443.94l6,3.46a171.09,171.09,0,0,0,40.77,16.89l6.69,1.8v29.1a2.4,2.4,0,0,0,2.4,2.4H340a2.41,2.41,0,0,0,2.4-2.4v-29.1l6.68-1.8a170.75,170.75,0,0,0,40.77-16.89l6-3.46,20.56,20.55a2.47,2.47,0,0,0,3.39,0l50.55-50.58a2.41,2.41,0,0,0,0-3.41L449.82,390l3.46-6a170.41,170.41,0,0,0,16.89-40.77l1.8-6.69h29a2.4,2.4,0,0,0,2.4-2.4V262.6a2.41,2.41,0,0,0-2.4-2.41H472l-1.8-6.69a170.92,170.92,0,0,0-16.89-40.76l-3.46-6,20.45-20.45a2.42,2.42,0,0,0,.7-1.7,2.46,2.46,0,0,0-.7-1.7l-50.59-50.55a2.42,2.42,0,0,0-3.4,0l-20.43,20.43-6-3.45a170,170,0,0,0-40.76-16.89l-6.69-1.8V101.74a2.4,2.4,0,0,0-2.4-2.41H268.48a2.4,2.4,0,0,0-2.4,2.41v28.89l-6.69,1.8a169.8,169.8,0,0,0-40.76,16.89l-6,3.45-20.43-20.43a2.42,2.42,0,0,0-3.4,0l-50.58,50.55a2.39,2.39,0,0,0,0,3.4l20.45,20.45-3.46,6a170.88,170.88,0,0,0-16.9,40.76l-1.8,6.69h-29a2.41,2.41,0,0,0-2.4,2.4l0,71.52a2.41,2.41,0,0,0,.71,1.72,2.38,2.38,0,0,0,1.69.68h29l1.8,6.69A170.85,170.85,0,0,0,155.2,384l3.46,6L138.12,410.5a2.42,2.42,0,0,0,0,3.41l50.55,50.58a2.48,2.48,0,0,0,3.4,0Zm125,48.85H270.88V464a2.43,2.43,0,0,0-1.91-2.36,165.57,165.57,0,0,1-55.27-22.9h0a2.42,2.42,0,0,0-3,.32l-20.32,20.31L143.22,412.2l20.3-20.3a2.4,2.4,0,0,0,.32-3,165.52,165.52,0,0,1-22.91-55.3,2.39,2.39,0,0,0-2.35-1.89H109.9l0-66.71h28.65a2.39,2.39,0,0,0,2.35-1.9,165.47,165.47,0,0,1,22.91-55.29,2.41,2.41,0,0,0-.32-3L143.3,184.6l47.2-47.16,20.19,20.2a2.39,2.39,0,0,0,3,.31A165.74,165.74,0,0,1,269,135.05a2.42,2.42,0,0,0,1.89-2.35V104.13h66.71v28.56a2.39,2.39,0,0,0,1.89,2.36A165.38,165.38,0,0,1,394.78,158a2.4,2.4,0,0,0,3-.32L418,137.44l47.19,47.16L445,204.81a2.41,2.41,0,0,0-.33,3,165.59,165.59,0,0,1,22.91,55.29,2.39,2.39,0,0,0,2.35,1.9h28.69v66.71H469.89a2.39,2.39,0,0,0-2.35,1.9,165.33,165.33,0,0,1-22.91,55.28,2.45,2.45,0,0,0,.32,3l20.3,20.3L418.1,459.39l-20.32-20.31a2.37,2.37,0,0,0-3-.32,165.36,165.36,0,0,1-55.29,22.9,2.43,2.43,0,0,0-1.9,2.36ZM289,474.72h30.57V464a20.59,20.59,0,0,1,16.17-20A147.69,147.69,0,0,0,385,423.58a20.57,20.57,0,0,1,25.59,2.72l7.53,7.54L439.7,412.2l-7.52-7.52a20.58,20.58,0,0,1-2.72-25.59,147.45,147.45,0,0,0,20.42-49.28,20.57,20.57,0,0,1,20-16.16h10.62V283.07H469.89a20.58,20.58,0,0,1-20-16.18,147.73,147.73,0,0,0-20.42-49.27A20.57,20.57,0,0,1,432.18,192l7.43-7.43L418,163l-7.43,7.42A20.51,20.51,0,0,1,385,173.14a147.47,147.47,0,0,0-49.29-20.43,20.58,20.58,0,0,1-16.17-20V122.2H289v10.5a20.57,20.57,0,0,1-16.17,20,147.85,147.85,0,0,0-49.28,20.43,20.63,20.63,0,0,1-25.58-2.71L190.49,163,168.86,184.6,176.3,192A20.58,20.58,0,0,1,179,217.62a147.67,147.67,0,0,0-20.41,49.27,20.6,20.6,0,0,1-20,16.18H128l0,30.58h10.61a20.56,20.56,0,0,1,20,16.16A148,148,0,0,0,179,379.09a20.58,20.58,0,0,1-2.71,25.59l-7.53,7.52,21.61,21.64,7.53-7.54a20.56,20.56,0,0,1,25.6-2.72A147.48,147.48,0,0,0,272.77,444,20.6,20.6,0,0,1,289,464Z"/><path class="cls-1" d="M398.75,298.46A94.51,94.51,0,1,0,304.24,393,94.62,94.62,0,0,0,398.75,298.46Zm-166.14,0a71.63,71.63,0,1,1,71.63,71.63A71.71,71.71,0,0,1,232.61,298.46Z"/><path class="cls-1" d="M304.24,402A103.54,103.54,0,1,1,407.78,298.46,103.65,103.65,0,0,1,304.24,402Zm0-189a85.48,85.48,0,1,0,85.47,85.47A85.57,85.57,0,0,0,304.24,213Zm0,166.14a80.67,80.67,0,1,1,80.67-80.67A80.76,80.76,0,0,1,304.24,379.13Zm0-143.27a62.6,62.6,0,1,0,62.6,62.6A62.67,62.67,0,0,0,304.24,235.86Z"/></svg>