<svg id="Capa_1" data-name="Capa 1" xmlns="http://www.w3.org/2000/svg" viewBox="0 0 500 335.41"><defs><style>.cls-1{fill:#99a0af;}.cls-2{fill:#fff;}</style></defs><title> ICONOS INACTIVOS </title><path class="cls-1" d="M308,1A60.28,60.28,0,0,0,295.7,2.39a15.63,15.63,0,0,0-2.46.43L289.47,4c-.59.19-1.18.33-1.76.53L52.43,75.12C22.65,78.81.75,116.1.75,164.81c0,45.35,19,80.8,45.61,88.47l34.87,10.36v32.87a38,38,0,0,0,37.91,37.9h11.58a38,38,0,0,0,37.91-37.9V289.6l117.74,35A61.52,61.52,0,0,0,308,328.62c54.27,0,96.79-71.95,96.79-163.81S362.22,1,308,1Zm9.35,297.89c-30.35,0-64.17-53.87-64.17-131.18S287,36.53,317.3,36.53s64.18,53.87,64.18,131.18S347.65,298.89,317.3,298.89Z"/><path class="cls-1" d="M482.94,148.5h-44.2a16.32,16.32,0,1,0,0,32.63h44.2a16.32,16.32,0,0,0,0-32.63Z"/><path class="cls-1" d="M435.11,127.55a16.18,16.18,0,0,0,7.43-1.8l39.33-20.18a16.31,16.31,0,1,0-14.89-29L427.65,96.73a16.31,16.31,0,0,0,7.46,30.82Z"/><path class="cls-1" d="M481.87,224.05l-39.33-20.18a16.32,16.32,0,0,0-14.9,29L467,253.08a16.12,16.12,0,0,0,7.43,1.8,16.31,16.31,0,0,0,7.46-30.83Z"/><path class="cls-2" d="M317.3,36.53c-30.35,0-64.17,53.87-64.17,131.18S287,298.89,317.3,298.89,381.48,245,381.48,167.71,347.65,36.53,317.3,36.53Z"/></svg>