<svg id="Capa_1" data-name="Capa 1" xmlns="http://www.w3.org/2000/svg" viewBox="0 0 377.68 500"><defs><style>.cls-1{fill:#22a5fd;}</style></defs><title>TWINBUSINESS ICONOS ACTIVOS </title><path class="cls-1" d="M306.54,498H71.08A68,68,0,0,1,1,432.43v-1.19L28,110.57a13.22,13.22,0,0,1,4-8.43,12,12,0,0,1,8.38-3.44h56A101.39,101.39,0,0,1,103.9,61a99.64,99.64,0,0,1,8.6-16.44,97.94,97.94,0,0,1,11.29-14.3,94.38,94.38,0,0,1,13.61-11.8A91.55,91.55,0,0,1,153,9.57a87.82,87.82,0,0,1,71.46,0,91.46,91.46,0,0,1,15.62,8.92,94.16,94.16,0,0,1,13.65,11.8,97.94,97.94,0,0,1,11.29,14.3A99.64,99.64,0,0,1,273.65,61a101.39,101.39,0,0,1,7.51,37.67h56a12.06,12.06,0,0,1,8.38,3.44,13.24,13.24,0,0,1,4,8.49l27,320.66a4,4,0,0,1,.12,1.19A61.49,61.49,0,0,1,371,458a65.61,65.61,0,0,1-15,20.84,70.45,70.45,0,0,1-22.29,14A73.65,73.65,0,0,1,306.54,498ZM188.86,28.12a69.86,69.86,0,0,0-67.72,70.56H256.48A69.81,69.81,0,0,0,188.86,28.12Z"/></svg>