<svg id="Capa_1" data-name="Capa 1" xmlns="http://www.w3.org/2000/svg" viewBox="0 0 377.64 500"><defs><style>.cls-1{fill:#22a5fd;}.cls-2{fill:#fff;}</style></defs><title>TWINBUSINESS ICONOS ACTIVOS </title><path class="cls-1" d="M306.51,498H71.07A68,68,0,0,1,1,432.41v-1.18L28,110.59a13.2,13.2,0,0,1,4-8.43,12,12,0,0,1,8.38-3.45h56a101.33,101.33,0,0,1,7.5-37.66,99.64,99.64,0,0,1,8.6-16.44,97.94,97.94,0,0,1,11.29-14.3,94.38,94.38,0,0,1,13.61-11.8A91.17,91.17,0,0,1,153,9.59a87.77,87.77,0,0,1,71.44,0,91.17,91.17,0,0,1,15.63,8.92,95.23,95.23,0,0,1,13.65,11.8A97.2,97.2,0,0,1,265,44.61a98.93,98.93,0,0,1,8.61,16.44,101.53,101.53,0,0,1,7.5,37.66h56a12,12,0,0,1,8.38,3.45,13.18,13.18,0,0,1,4,8.48l27,320.64a3.92,3.92,0,0,1,.12,1.18A61.62,61.62,0,0,1,371,458a65.3,65.3,0,0,1-15,20.84,70.41,70.41,0,0,1-22.28,14A73.69,73.69,0,0,1,306.51,498ZM188.84,28.14A69.85,69.85,0,0,0,121.13,98.7H256.45A69.8,69.8,0,0,0,188.84,28.14Z"/><path class="cls-2" d="M156.43,386A11.61,11.61,0,0,1,140,386L74.45,320.39a17.4,17.4,0,0,1,0-24.63l8.21-8.21a17.42,17.42,0,0,1,24.63,0l40.93,40.93,110.6-110.6a17.42,17.42,0,0,1,24.63,0l8.21,8.21a17.42,17.42,0,0,1,0,24.63Z"/></svg>