<svg id="Capa_1" data-name="Capa 1" xmlns="http://www.w3.org/2000/svg" viewBox="0 0 745.86 556.49"><defs><style>.cls-1{fill:#175791;}.cls-2{fill:#22a5fd;}</style></defs><title>TWINCAHT_Iconos</title><path class="cls-1" d="M744.28,22.77A19.77,19.77,0,0,0,723.45,1.94c-.32,0-.63-.05-1-.05H602.39a19.85,19.85,0,0,0,0,39.7h74.16L480.3,237.85l-74-74a19.84,19.84,0,0,0-28.08,0L21.34,520.72a19.85,19.85,0,1,0,28.07,28.07L392.25,206l74,74a19.86,19.86,0,0,0,28.08,0L704.63,69.67v67.12a19.85,19.85,0,0,0,39.7,0V23.73C744.33,23.4,744.3,23.09,744.28,22.77Z"/><path class="cls-2" d="M730.29,22.77A19.77,19.77,0,0,0,709.46,1.94c-.32,0-.63-.05-1-.05H588.4a19.85,19.85,0,0,0,0,39.7h74.16L466.31,237.85l-74-74a19.84,19.84,0,0,0-28.08,0L7.35,520.72a19.85,19.85,0,1,0,28.07,28.07L378.26,206l74,74a19.86,19.86,0,0,0,28.08,0L690.64,69.67v67.12a19.85,19.85,0,0,0,39.7,0V23.73C730.34,23.4,730.31,23.09,730.29,22.77Z"/></svg>