<svg id="Capa_1" data-name="Capa 1" xmlns="http://www.w3.org/2000/svg" viewBox="0 0 500 318.64"><defs><style>.cls-1{fill:#27a2fb;}.cls-2{fill:#3395ff;}</style></defs><title>TWINBUSINESS ICONOS</title><rect class="cls-1" x="176.04" y="290.56" width="322.98" height="27.01"/><rect class="cls-2" x="195.04" y="112.37" width="38" height="167.06"/><rect class="cls-2" x="318.53" y="112.37" width="38" height="167.06"/><rect class="cls-2" x="442.02" y="112.37" width="38" height="167.06"/><polygon class="cls-2" points="499.01 90.1 337.53 1 176.04 90.1 176.04 101.23 499.01 101.23 499.01 90.1"/><path class="cls-2" d="M90.34,134.07a9.21,9.21,0,1,0-12.92,13.12l40,39.5H10.19a9.21,9.21,0,1,0,0,18.42H117.44l-40,39.5a9.21,9.21,0,1,0,12.92,13.12l56-55.27a9.2,9.2,0,0,0,0-13.12Z"/></svg>