<svg id="Capa_1" data-name="Capa 1" xmlns="http://www.w3.org/2000/svg" viewBox="0 0 406.42 500"><defs><style>.cls-1{fill:none;}.cls-2{fill:#27a2fb;}</style></defs><title>TWINBUSINESS ICONOS debra</title><path class="cls-1" d="M277.83,61.63V47.05A22.46,22.46,0,0,0,255,24.33l-103.55,0a22.46,22.46,0,0,0-22.85,22.75V61.68Z"/><path class="cls-1" d="M57.46,150.33l.09,286.29c0,21.94,15.53,39.07,35.46,39.06l220.64-.08c19.94,0,35.44-17.13,35.44-39.07L349,150.24Zm77.06,274.84a11.66,11.66,0,0,1-11.67-11.66l-.07-220.4a11.66,11.66,0,1,1,23.32,0l.07,220.4A11.66,11.66,0,0,1,134.52,425.17Zm68.8,0a11.67,11.67,0,0,1-11.67-11.66l-.07-220.4a11.66,11.66,0,0,1,23.32,0L215,413.49A11.65,11.65,0,0,1,203.32,425.15Zm68.8,0a11.64,11.64,0,0,1-11.66-11.65l-.08-220.4a11.67,11.67,0,0,1,23.33,0l.07,220.4A11.66,11.66,0,0,1,272.12,425.12Z"/><path class="cls-1" d="M360.87,84.93,45.54,85a21,21,0,0,0,0,42l315.32-.11a21,21,0,1,0,0-42Z"/><path class="cls-2" d="M272,181.4a11.67,11.67,0,0,0-11.66,11.67l.08,220.4a11.66,11.66,0,0,0,23.32,0l-.07-220.4A11.67,11.67,0,0,0,272,181.4Z"/><path class="cls-2" d="M134.43,181.45a11.65,11.65,0,0,0-11.65,11.66l.07,220.4a11.66,11.66,0,1,0,23.32,0l-.07-220.4A11.66,11.66,0,0,0,134.43,181.45Z"/><path class="cls-2" d="M405,100.38A44.56,44.56,0,0,0,360.86,61.6l-59.71,0V47.05A45.82,45.82,0,0,0,255,1L151.4,1a45.79,45.79,0,0,0-46.16,46.07V61.69l-59.71,0a44.55,44.55,0,0,0-11.4,87.61l.1,287.31c0,17,6.24,32.93,17.12,44.37A57.41,57.41,0,0,0,93,499l220.64-.07a57.42,57.42,0,0,0,41.66-18c10.88-11.45,17.1-27.4,17.09-44.38l-.09-287.31A44.55,44.55,0,0,0,405,100.38ZM135.17,30.9a22.46,22.46,0,0,1,16.24-6.54l103.55,0a22.46,22.46,0,0,1,22.86,22.72V61.63l-149.27,0V47.11A22.44,22.44,0,0,1,135.17,30.9ZM313.65,475.6,93,475.68c-19.93,0-35.45-17.12-35.46-39.06l-.09-286.29L349,150.24l.1,286.29C349.09,458.47,333.59,475.6,313.65,475.6Zm47.23-348.69L45.56,127a21,21,0,0,1,0-42l315.33-.1a21,21,0,1,1,0,42Z"/><path class="cls-2" d="M203.24,181.43a11.65,11.65,0,0,0-11.66,11.66l.07,220.4a11.66,11.66,0,1,0,23.32,0l-.07-220.41A11.65,11.65,0,0,0,203.24,181.43Z"/></svg>