<svg id="Capa_1" data-name="Capa 1" xmlns="http://www.w3.org/2000/svg" viewBox="0 0 431.37 430.17"><defs><style>.cls-1{fill:#3395ff;}</style></defs><title>TWINBUSINESS ICONOS</title><path class="cls-1" d="M215.09,0C96.49,0,0,96.49,0,215.09S96.49,430.17,215.09,430.17s215.08-96.49,215.08-215.08S333.69,0,215.09,0ZM330.61,328.46a159.28,159.28,0,0,1-113.37,47c-88.4,0-160.33-71.93-160.33-160.33S128.84,54.76,217.24,54.76a160.33,160.33,0,0,1,113.37,273.7Z"/><path class="cls-1" d="M223.41,233.44V205.33h24.25V178.88H224v-22.6l-31.42,4.41v18.74H174.35v26.46h17.78l.41,33.62s-.41,25.27,20,32.16c21.08,7.11,45.6-5.15,45.6-5.15L243.8,237.31C225.07,248.33,223.41,233.44,223.41,233.44Z"/><path class="cls-1" d="M308.52,273.06c.21-.34.4-.68.61-1,.68-1.12,1.35-2.24,2-3.39a1.71,1.71,0,0,0,.13-.23,110,110,0,1,0-96.15,56.63h0c1,0,2,0,3-.05a109.33,109.33,0,0,0,42.07-9.61c1.2-.5,2.4-1,3.57-1.56A118.42,118.42,0,0,0,304.5,321a87,87,0,0,0,10.09-.5,8.46,8.46,0,0,0,3.83-15.28c-3.19-2.37-9.19-16.59-12.57-28l.23-.35C306.92,275.58,307.74,274.33,308.52,273.06ZM299,255.27c-.8,1.66-1.65,3.28-2.54,4.88-.18.33-.36.65-.55,1-.69,1.21-1.41,2.41-2.16,3.59-1.24,2-2.53,3.9-3.93,5.78a8.52,8.52,0,0,0-1.4,7.15,167.72,167.72,0,0,0,9.43,26.19,98.07,98.07,0,0,1-31.23-7,8.45,8.45,0,0,0-7,.24A108.52,108.52,0,0,1,220.51,308c-1.79.11-3.6.18-5.42.18A93,93,0,1,1,299,255.27Z"/></svg>