<svg id="Capa_1" data-name="Capa 1" xmlns="http://www.w3.org/2000/svg" viewBox="0 0 491.16 488.95"><defs><style>.cls-1{fill:#3395ff;}</style></defs><title>TWINBUSINESS ICONOS</title><path class="cls-1" d="M244.48,0C109.67,0,0,109.67,0,244.47S109.67,489,244.48,489,489,379.27,489,244.47,379.28,0,244.48,0ZM375.79,373.33a181,181,0,0,1-128.86,53.38C146.44,426.71,64.69,345,64.69,244.47S146.44,62.24,246.93,62.24A182.24,182.24,0,0,1,375.79,373.33Z"/><path class="cls-1" d="M253.94,265.33V233.39h27.57V203.32H254.56V177.63l-35.71,5v21.3H198.18V234h20.2l.47,38.21s-.47,28.72,22.71,36.56c24,8.08,51.85-5.86,51.85-5.86l-16.29-33.2C255.82,282.26,253.94,265.33,253.94,265.33Z"/><path class="cls-1" d="M350.68,310.37c.24-.39.45-.78.69-1.16.77-1.27,1.53-2.55,2.26-3.85,0-.09.09-.18.14-.27a125,125,0,1,0-109.29,64.37h0q1.7,0,3.42-.06a124.41,124.41,0,0,0,47.82-10.92c1.36-.57,2.72-1.16,4.06-1.78a134.49,134.49,0,0,0,46.33,8.1,100.18,100.18,0,0,0,11.46-.57,9.61,9.61,0,0,0,4.36-17.36c-3.63-2.7-10.44-18.86-14.28-31.84.09-.13.16-.27.25-.4C348.86,313.23,349.78,311.81,350.68,310.37Zm-10.81-20.23c-.9,1.89-1.87,3.73-2.88,5.55-.2.37-.41.74-.62,1.1q-1.19,2.08-2.45,4.09c-1.42,2.23-2.89,4.43-4.48,6.57a9.64,9.64,0,0,0-1.58,8.12,189.69,189.69,0,0,0,10.71,29.77,111.33,111.33,0,0,1-35.5-8,9.56,9.56,0,0,0-8,.28A123.41,123.41,0,0,1,250.65,350c-2.05.12-4.1.2-6.17.2a105.78,105.78,0,1,1,95.39-60.1Z"/></svg>