<svg id="Capa_1" data-name="Capa 1" xmlns="http://www.w3.org/2000/svg" viewBox="0 0 431.37 431.31"><defs><style>.cls-1{fill:#3395ff;}</style></defs><title>TWINBUSINESS ICONOS</title><path class="cls-1" d="M215.69-.06C96.57-.06,0,96.51,0,215.62S96.57,431.31,215.69,431.31s215.68-96.57,215.68-215.69S334.75.07,215.69-.06Zm0,417c-111.18,0-201.31-90.13-201.31-201.31s90.13-201.3,201.31-201.3S417,104.45,417,215.62,326.81,416.81,215.69,416.93Z"/><path class="cls-1" d="M321.22,183.32c.11,2.34.16,4.68.16,7,0,71.95-54.77,154.92-154.93,154.92h0A154.12,154.12,0,0,1,83,320.82a110,110,0,0,0,80.62-22.55,54.51,54.51,0,0,1-50.87-37.82,54.5,54.5,0,0,0,24.59-.93,54.47,54.47,0,0,1-43.68-53.38c0-.24,0-.46,0-.69a54.15,54.15,0,0,0,24.66,6.81,54.51,54.51,0,0,1-16.86-72.7,154.6,154.6,0,0,0,112.24,56.9,54.48,54.48,0,0,1,92.78-49.66,109.17,109.17,0,0,0,34.58-13.22,54.62,54.62,0,0,1-23.95,30.12,108.8,108.8,0,0,0,31.27-8.57A110.64,110.64,0,0,1,321.22,183.32Z"/></svg>