<svg id="Capa_1" data-name="Capa 1" xmlns="http://www.w3.org/2000/svg" viewBox="0 0 500 428.38"><defs><style>.cls-1{fill:#99a0af;}</style></defs><title> ICONOS INACTIVOS </title><path class="cls-1" d="M497.89,192.05l-72-188.23A4.4,4.4,0,0,0,421.78,1H84.22a4.37,4.37,0,0,0-4,2.71l-78,188.23A4.38,4.38,0,0,0,6.21,198H493.79a4.39,4.39,0,0,0,4.1-6Z"/><path class="cls-1" d="M447.72,233.76a7.39,7.39,0,0,0-7.61,7.14V391.69c0,11.81-10.23,21.42-22.81,21.42H358.2a8.89,8.89,0,0,0,.48-2.42V275.15a8.77,8.77,0,0,0-8.77-8.77H156.42a8.77,8.77,0,0,0-8.77,8.77v135.7a8.18,8.18,0,0,0,.46,2.26H82.7c-12.58,0-22.82-9.61-22.82-21.42V240.9a7.61,7.61,0,0,0-15.2,0V391.69c0,19.68,17,35.69,38,35.69H417.3c21,0,38-16,38-35.69V240.9A7.39,7.39,0,0,0,447.72,233.76ZM180.61,413.11H164.75a9,9,0,0,0,.45-2.26V283.93h83.58V410.85a4.24,4.24,0,0,0,.72,2.26H180.61Zm76.23,0a4.31,4.31,0,0,0,.71-2.26V283.93h83.58V410.69a8.54,8.54,0,0,0,.49,2.42H256.84Z"/></svg>