<svg id="Capa_1" data-name="Capa 1" xmlns="http://www.w3.org/2000/svg" viewBox="0 0 427.72 343.57"><defs><style>.cls-1{fill:none;}.cls-2{fill:#3395ff;}.cls-3{fill:#fff;}</style></defs><title>TWINBUSINESS ICONOS</title><path class="cls-1" d="M263.1,85.74A16.87,16.87,0,0,0,246.16,68.8H45.92A19.68,19.68,0,0,0,26.35,88.37c0,10.92,9,19.95,19.57,19.95H263.1Z"/><path class="cls-2" d="M416.72,50.63H379.29a2.2,2.2,0,0,1-2.2-2.2V11a11,11,0,1,0-22,0V48.43a2.2,2.2,0,0,1-2.21,2.2H315.45a11,11,0,1,0,0,22h37.42a2.2,2.2,0,0,1,2.21,2.2v37.42a11,11,0,1,0,22,0V74.85a2.2,2.2,0,0,1,2.2-2.2h37.43a11,11,0,0,0,0-22Z"/><path class="cls-2" d="M289.82,108.7v-23a43.54,43.54,0,0,0-43.28-43.29H45.92A46,46,0,0,0,0,87.62V300.29a43.53,43.53,0,0,0,43.29,43.28H284.18a43.54,43.54,0,0,0,43.29-43.28V151.61A43.41,43.41,0,0,0,289.82,108.7ZM26.35,88.37A19.68,19.68,0,0,1,45.92,68.8H246.16A16.87,16.87,0,0,1,263.1,85.74v22.58H45.92C35.38,108.32,26.35,99.29,26.35,88.37ZM263.53,250.94a31.18,31.18,0,1,1,31.18-31.18A31.18,31.18,0,0,1,263.53,250.94Z"/><path class="cls-3" d="M263.53,188.58a31.18,31.18,0,1,0,31.18,31.18A31.18,31.18,0,0,0,263.53,188.58Z"/></svg>