<svg id="Capa_1" data-name="Capa 1" xmlns="http://www.w3.org/2000/svg" viewBox="0 0 374.35 328.73"><title>TWINBUSINESS ICONOS</title><path d="M362.67,328.54c-12.45,0-24.89-.09-37.33,0a11.3,11.3,0,0,1-9-3.69c-22-23.14-44-46.31-66.28-69.24-8.55-8.81-16.42-18.32-26.69-25.41a62.69,62.69,0,0,0-73.28.82,111.52,111.52,0,0,0-14.73,13.16C110.06,270.68,84.6,297,59.34,323.57c-3.41,3.58-6.89,5.26-11.87,5.16-13.93-.27-27.86-.07-41.79-.14-1.94,0-4.61.82-5.5-1.54-.83-2.2,1.46-3.67,2.81-5.08,11.68-12.15,23.45-24.22,35.16-36.34,25.17-26,50-52.37,75.56-78,28.71-28.81,63.58-36.59,102.44-26.91,15.74,3.92,29.22,12.64,41,23.81,22.08,20.84,42.33,43.45,63.38,65.29,14.83,15.39,29.81,30.64,44.7,46,2.55,2.63,5,5.36,7.44,8.09.84.94,2.17,1.89,1.41,3.39s-2.26,1.19-3.55,1.23c-2.63.07-5.28,0-7.91,0Z"/><path d="M27.57.1C34.76.1,42,.23,49.13.05a11.5,11.5,0,0,1,9.31,3.84q40.22,41.84,80.63,83.49c18.57,19.17,40.58,26.63,66.79,19.24,11.47-3.24,20.83-10.09,29-18.43Q266.44,56,297.6,23.49c4.26-4.44,8.4-9,12.82-13.28,2.87-2.77,6.64-4.45,8.67-8.31,1.05-2,3.93-1.61,6.12-1.58Q347.62.64,370,1c.87,0,1.89-.16,2.38.73.73,1.36-.41,2.19-1.17,3-8.23,9-16.38,18-24.75,26.82C334.89,43.77,323.12,55.83,311.42,68c-13.29,13.78-26.66,27.49-39.84,41.37-7.48,7.88-14.89,15.79-23.72,22.21-23.4,17-49.45,22.69-77.87,18.39-23.75-3.6-43-15.26-59.42-32.44C88.29,94.18,65.7,71.16,43.29,48Q23.13,27.11,3.11,6.09A17.46,17.46,0,0,1,1.66,4.44C1,3.51-.07,2.62.42,1.33,1-.24,2.51,0,3.82,0H27.57Z"/></svg>